STARTFONT 2.1
FONT big5.8600.16
SIZE 16 72 72
FONTBOUNDINGBOX 16 16 0 -2
STARTPROPERTIES 4
FONT_DESCENT 2
FONT_ASCENT 14
DEFAULT_CHAR 0
COPYRIGHT "Copyright (c) 1992 AT&T - All rights reserved."
ENDPROPERTIES
CHARS 374
STARTCHAR ch-0
ENCODING 0
SWIDTH 1000 0
DWIDTH 16 0
BBX 16 16 0 -2
BITMAP
0808
7f7f
0808
08fe
08aa
7efe
0810
0cfe
0810
19ff
2844
48fe
09ff
1810
0000
0000
ENDCHAR
STARTCHAR ch-1
ENCODING 1
SWIDTH 1000 0
DWIDTH 16 0
BBX 16 16 0 -2
BITMAP
0410
7f7f
0410
7fff
0080
3ebe
22a2
3ebe
7fff
0080
3ebe
22a2
3ebe
7fff
0000
0000
ENDCHAR
STARTCHAR ch-4
ENCODING 4
SWIDTH 1000 0
DWIDTH 16 0
BBX 16 16 0 -2
BITMAP
0410
7f7f
0410
7bc1
4a7e
7bd0
3f9f
2492
3f92
2492
3f92
0422
7fc2
0402
0000
0000
ENDCHAR
STARTCHAR ch-5
ENCODING 5
SWIDTH 1000 0
DWIDTH 16 0
BBX 16 16 0 -2
BITMAP
0220
7fff
0900
09ee
1240
27e0
4abf
13e4
32a4
53e4
1084
17f4
1144
162c
0000
0000
ENDCHAR
STARTCHAR ch-6
ENCODING 6
SWIDTH 1000 0
DWIDTH 16 0
BBX 16 16 0 -2
BITMAP
0808
7f7f
08f8
1ffe
1082
17fc
10f0
13f8
1248
13e8
13f8
27fc
44a4
1fff
0000
0000
ENDCHAR
STARTCHAR ch-7
ENCODING 7
SWIDTH 1000 0
DWIDTH 16 0
BBX 16 16 0 -2
BITMAP
0808
7f7f
0808
1002
3e3c
4408
7f7f
4908
7f08
491c
7f2a
0049
5508
5508
0000
0000
ENDCHAR
STARTCHAR ch-9
ENCODING 9
SWIDTH 1000 0
DWIDTH 16 0
BBX 16 16 0 -2
BITMAP
0410
7f7f
1ffc
1224
1ffc
7fff
49f9
5009
33fe
51f8
17fe
15f2
1040
17bc
0000
0000
ENDCHAR
STARTCHAR ch-10
ENCODING 10
SWIDTH 1000 0
DWIDTH 16 0
BBX 16 16 0 -2
BITMAP
0808
7f7f
0808
10fe
2092
4492
7caa
10fe
2000
7cfe
10aa
54aa
54aa
11ff
0000
0000
ENDCHAR
STARTCHAR ch-11
ENCODING 11
SWIDTH 1000 0
DWIDTH 16 0
BBX 16 16 0 -2
BITMAP
0808
7f7f
0808
287e
2f10
2820
7f7e
0842
1a7e
2a42
4a7e
0a42
047e
7881
0000
0000
ENDCHAR
STARTCHAR ch-12
ENCODING 12
SWIDTH 1000 0
DWIDTH 16 0
BBX 16 16 0 -2
BITMAP
0410
7f7f
0410
220f
4be9
1489
37fb
52a8
13e8
1ffc
0000
3ffe
0490
0888
0000
0000
ENDCHAR
STARTCHAR ch-17
ENCODING 17
SWIDTH 1000 0
DWIDTH 16 0
BBX 16 16 0 -2
BITMAP
0410
7fff
0490
3ffe
2210
3ffe
2638
2b57
3292
3ffe
2200
27fc
5a04
03fc
0000
0000
ENDCHAR
STARTCHAR ch-23
ENCODING 23
SWIDTH 1000 0
DWIDTH 16 0
BBX 16 16 0 -2
BITMAP
0808
7f7f
0808
3f08
217f
3f22
207f
3f08
517f
1f08
0080
7fff
0888
1084
0000
0000
ENDCHAR
STARTCHAR ch-24
ENCODING 24
SWIDTH 1000 0
DWIDTH 16 0
BBX 16 16 0 -2
BITMAP
0410
7f7f
0490
7fff
1f7c
1144
1f7c
0410
1ffc
1ffc
7fff
0c50
1520
261e
0000
0000
ENDCHAR
STARTCHAR ch-25
ENCODING 25
SWIDTH 1000 0
DWIDTH 16 0
BBX 16 16 0 -2
BITMAP
0410
7f7f
0410
7fbc
5025
7f47
443e
7f14
4a08
7fb7
3f3f
1111
0909
1111
0000
0000
ENDCHAR
STARTCHAR ch-26
ENCODING 26
SWIDTH 1000 0
DWIDTH 16 0
BBX 16 16 0 -2
BITMAP
0808
7f7f
0808
1041
3e22
447f
7f08
497f
7f08
4908
7f7f
0008
5508
5508
0000
0000
ENDCHAR
STARTCHAR ch-27
ENCODING 27
SWIDTH 1000 0
DWIDTH 16 0
BBX 16 16 0 -2
BITMAP
0410
7f7f
0410
1104
7fbf
1112
1f3f
1f01
113f
7fbf
2a3f
3ba1
2025
3fc2
0000
0000
ENDCHAR
STARTCHAR ch-28
ENCODING 28
SWIDTH 1000 0
DWIDTH 16 0
BBX 16 16 0 -2
BITMAP
0410
7f7f
0410
1440
7f7f
1481
1d11
0855
3e39
2aff
3e39
0855
7f93
0806
0000
0000
ENDCHAR
STARTCHAR ch-30
ENCODING 30
SWIDTH 1000 0
DWIDTH 16 0
BBX 16 16 0 -2
BITMAP
0808
7f7f
0808
0e10
1110
2e9f
4062
3b82
2aa2
3b94
1108
1114
2aa2
4441
0000
0000
ENDCHAR
STARTCHAR ch-31
ENCODING 31
SWIDTH 1000 0
DWIDTH 16 0
BBX 16 16 0 -2
BITMAP
0410
7f7f
0414
7df8
4492
48fe
5010
49ff
44fe
4402
54fe
48fe
4152
407c
0000
0000
ENDCHAR
STARTCHAR ch-32
ENCODING 32
SWIDTH 1000 0
DWIDTH 16 0
BBX 16 16 0 -2
BITMAP
0410
7f7f
0410
2410
24fe
2492
3d55
05ff
7c00
24fe
24ba
24aa
44ba
04fe
0000
0000
ENDCHAR
STARTCHAR ch-33
ENCODING 33
SWIDTH 1000 0
DWIDTH 16 0
BBX 16 16 0 -2
BITMAP
0410
7fff
0410
3f7e
3f7e
3f7e
2142
3f7e
4281
0220
7fff
0140
0080
1f7c
0000
0000
ENDCHAR
STARTCHAR ch-34
ENCODING 34
SWIDTH 1000 0
DWIDTH 16 0
BBX 16 16 0 -2
BITMAP
0810
7fff
0850
7f7e
2240
7f7e
0002
7f7e
417e
7f40
417e
7f7e
4141
477f
0000
0000
ENDCHAR
STARTCHAR ch-35
ENCODING 35
SWIDTH 1000 0
DWIDTH 16 0
BBX 16 16 0 -2
BITMAP
0410
7f7f
0410
1200
7f88
1208
1e7f
7f88
3f08
253e
3f08
2508
3f7f
4080
0000
0000
ENDCHAR
STARTCHAR ch-36
ENCODING 36
SWIDTH 1000 0
DWIDTH 16 0
BBX 16 16 0 -2
BITMAP
0410
7f7f
0410
1110
20a0
7c78
4488
45fc
4604
7fff
4401
4555
4555
7c07
0000
0000
ENDCHAR
STARTCHAR ch-37
ENCODING 37
SWIDTH 1000 0
DWIDTH 16 0
BBX 16 16 0 -2
BITMAP
0410
7f7f
05d0
0220
07f0
0808
1ddc
3556
5ddd
0000
1ffc
1224
1ffc
122c
0000
0000
ENDCHAR
STARTCHAR ch-38
ENCODING 38
SWIDTH 1000 0
DWIDTH 16 0
BBX 16 16 0 -2
BITMAP
0410
7fff
0410
0000
3ffe
0080
7fff
4489
4291
0488
39ce
294a
294a
39ce
0000
0000
ENDCHAR
STARTCHAR ch-39
ENCODING 39
SWIDTH 1000 0
DWIDTH 16 0
BBX 16 16 0 -2
BITMAP
0808
7fff
0848
407c
13fe
0252
02f8
7220
13fc
2234
1278
14d6
2810
47ff
0000
0000
ENDCHAR
STARTCHAR ch-41
ENCODING 41
SWIDTH 1000 0
DWIDTH 16 0
BBX 16 16 0 -2
BITMAP
0220
7fff
1f90
3fbf
5282
7fd4
1288
1f94
0123
07c0
0110
0ff8
0490
0888
0000
0000
ENDCHAR
STARTCHAR ch-42
ENCODING 42
SWIDTH 1000 0
DWIDTH 16 0
BBX 16 16 0 -2
BITMAP
0410
7f7f
0490
3fff
2220
3ffe
3ffe
2f3c
48a2
0fbe
0490
3ffe
0490
0888
0000
0000
ENDCHAR
STARTCHAR ch-44
ENCODING 44
SWIDTH 1000 0
DWIDTH 16 0
BBX 16 16 0 -2
BITMAP
0410
7eff
2410
7efe
4202
7e7e
4002
7efe
43ff
7f11
08fe
2e92
289e
7e10
0000
0000
ENDCHAR
STARTCHAR ch-45
ENCODING 45
SWIDTH 1000 0
DWIDTH 16 0
BBX 16 16 0 -2
BITMAP
0808
7f7f
0808
7f7f
7f7f
4141
7f7f
4081
4ff9
4ff9
4aa9
4ff9
4491
488b
0000
0000
ENDCHAR
STARTCHAR ch-46
ENCODING 46
SWIDTH 1000 0
DWIDTH 16 0
BBX 16 16 0 -2
BITMAP
0808
7f7f
0808
1ffc
1224
1ffc
0000
3fff
2a82
2512
2892
2a92
4502
18c6
0000
0000
ENDCHAR
STARTCHAR ch-49
ENCODING 49
SWIDTH 1000 0
DWIDTH 16 0
BBX 16 16 0 -2
BITMAP
0808
7f7f
0808
497f
2a08
7f3e
1c22
2a3e
4922
0a3e
7f22
143e
2222
4141
0000
0000
ENDCHAR
STARTCHAR ch-50
ENCODING 50
SWIDTH 1000 0
DWIDTH 16 0
BBX 16 16 0 -2
BITMAP
0808
7f7f
0ff8
0490
07f0
07f0
3e3e
2a2a
3e3e
3ebe
0080
0ff8
0080
7fff
0000
0000
ENDCHAR
STARTCHAR ch-51
ENCODING 51
SWIDTH 1000 0
DWIDTH 16 0
BBX 16 16 0 -2
BITMAP
0410
7f7f
0410
1208
7f88
123e
1e08
7f7f
3f08
2508
3f3e
2508
3f7f
4080
0000
0000
ENDCHAR
STARTCHAR ch-52
ENCODING 52
SWIDTH 1000 0
DWIDTH 16 0
BBX 16 16 0 -2
BITMAP
0808
3f7e
0888
5ebd
5ebd
5ebd
4491
7fff
1ffc
0ff8
0808
0ff8
0410
7fff
0000
0000
ENDCHAR
STARTCHAR ch-53
ENCODING 53
SWIDTH 1000 0
DWIDTH 16 0
BBX 16 16 0 -2
BITMAP
0410
7f7f
0410
7e44
25fe
3ca5
24a4
27ff
3c04
25e5
2526
7de5
052b
05f1
0000
0000
ENDCHAR
STARTCHAR ch-54
ENCODING 54
SWIDTH 1000 0
DWIDTH 16 0
BBX 16 16 0 -2
BITMAP
0410
7fff
0410
3e40
08fe
7f92
2afe
4992
22fe
7f2a
142d
084f
1489
630f
0000
0000
ENDCHAR
STARTCHAR ch-56
ENCODING 56
SWIDTH 1000 0
DWIDTH 16 0
BBX 16 16 0 -2
BITMAP
0410
7fff
7f48
14ff
3f48
2a7e
2a48
2a7e
3648
227f
3e00
22aa
3ea9
2101
0000
0000
ENDCHAR
STARTCHAR ch-57
ENCODING 57
SWIDTH 1000 0
DWIDTH 16 0
BBX 16 16 0 -2
BITMAP
0808
7f7f
0818
11ff
1000
51ff
7d29
51ff
50d6
1010
10d6
10ca
1144
1263
0000
0000
ENDCHAR
STARTCHAR ch-58
ENCODING 58
SWIDTH 1000 0
DWIDTH 16 0
BBX 16 16 0 -2
BITMAP
0410
7fff
0410
7fca
2a9f
24b2
2a92
3f9f
0412
7fd2
445f
4552
5f52
40df
0000
0000
ENDCHAR
STARTCHAR ch-59
ENCODING 59
SWIDTH 1000 0
DWIDTH 16 0
BBX 16 16 0 -2
BITMAP
0410
7f7f
0c3c
7fa5
3f47
297c
3f28
3f10
48a8
7fc7
0220
07c8
3ff8
0490
0000
0000
ENDCHAR
STARTCHAR ch-60
ENCODING 60
SWIDTH 1000 0
DWIDTH 16 0
BBX 16 16 0 -2
BITMAP
0110
3fff
0040
1ffe
1108
1fff
15aa
1949
179e
1090
179e
2090
4f9f
0090
0000
0000
ENDCHAR
STARTCHAR ch-62
ENCODING 62
SWIDTH 1000 0
DWIDTH 16 0
BBX 16 16 0 -2
BITMAP
0808
7f7f
0818
11ff
1000
11ff
7d29
11ff
10d6
1010
10d6
7cca
0144
0263
0000
0000
ENDCHAR
STARTCHAR ch-63
ENCODING 63
SWIDTH 1000 0
DWIDTH 16 0
BBX 16 16 0 -2
BITMAP
0808
7f7f
0808
3ffe
2222
3ffe
1088
23ff
7c88
08ff
1288
7eff
2a88
4aff
0000
0000
ENDCHAR
STARTCHAR ch-64
ENCODING 64
SWIDTH 1000 0
DWIDTH 16 0
BBX 16 16 0 -2
BITMAP
0410
7f7f
0490
7fff
0142
3ebc
22a4
4cb3
0220
3e3e
3e3e
0220
3e3e
7fff
0000
0000
ENDCHAR
STARTCHAR ch-67
ENCODING 67
SWIDTH 1000 0
DWIDTH 16 0
BBX 16 16 0 -2
BITMAP
0808
7f7f
0808
2126
12d5
07ff
4144
3774
1144
0775
1146
6775
214b
27f9
0000
0000
ENDCHAR
STARTCHAR ch-70
ENCODING 70
SWIDTH 1000 0
DWIDTH 16 0
BBX 16 16 0 -2
BITMAP
0808
7f7f
0ff8
0490
07f0
07f0
3e3e
2a2a
3e3e
3ebe
03c0
0110
0ff8
0490
0000
0000
ENDCHAR
STARTCHAR ch-71
ENCODING 71
SWIDTH 1000 0
DWIDTH 16 0
BBX 16 16 0 -2
BITMAP
0808
7f7f
088c
7bff
0884
09ce
794a
41ce
79ff
0b10
09fe
09fe
1110
61ff
0000
0000
ENDCHAR
STARTCHAR ch-72
ENCODING 72
SWIDTH 1000 0
DWIDTH 16 0
BBX 16 16 0 -2
BITMAP
0410
7f7f
0410
07f0
790f
4be9
4a29
7bef
0220
7bef
4a29
4be9
794f
0220
0000
0000
ENDCHAR
STARTCHAR ch-75
ENCODING 75
SWIDTH 1000 0
DWIDTH 16 0
BBX 16 16 0 -2
BITMAP
0808
7fff
13f4
1edc
1fdc
1254
7fff
5ffd
0ff8
0e78
09c8
0ff8
13e4
2122
0000
0000
ENDCHAR
STARTCHAR ch-76
ENCODING 76
SWIDTH 1000 0
DWIDTH 16 0
BBX 16 16 0 -2
BITMAP
0808
7f7f
1d28
3fbe
2ec8
35b6
1ffc
1224
1e3c
3e3e
2222
3e3f
3e3f
03ff
0000
0000
ENDCHAR
STARTCHAR ch-77
ENCODING 77
SWIDTH 1000 0
DWIDTH 16 0
BBX 16 16 0 -2
BITMAP
0080
0080
00fc
0080
3fff
2001
2082
2080
27fe
2080
2080
2080
20fe
4000
0000
0000
ENDCHAR
STARTCHAR ch-78
ENCODING 78
SWIDTH 1000 0
DWIDTH 16 0
BBX 16 16 0 -2
BITMAP
0088
00fc
0080
1fff
1101
1ffa
1100
1100
10f8
1000
1210
1211
2411
480f
0000
0000
ENDCHAR
STARTCHAR ch-80
ENCODING 80
SWIDTH 1000 0
DWIDTH 16 0
BBX 16 16 0 -2
BITMAP
0080
00fc
0080
3fff
2081
20fa
2f80
207c
2000
23f8
2202
2fff
4200
03fc
0000
0000
ENDCHAR
STARTCHAR ch-82
ENCODING 82
SWIDTH 1000 0
DWIDTH 16 0
BBX 16 16 0 -2
BITMAP
0002
3ffc
1020
103c
1020
13ff
1221
12fc
1220
123c
1248
1248
2449
488f
0000
0000
ENDCHAR
STARTCHAR ch-83
ENCODING 83
SWIDTH 1000 0
DWIDTH 16 0
BBX 16 16 0 -2
BITMAP
2010
201e
2010
78ff
2891
28bd
2890
289e
2880
28a4
2aa4
4ea4
0125
0247
0000
0000
ENDCHAR
STARTCHAR ch-84
ENCODING 84
SWIDTH 1000 0
DWIDTH 16 0
BBX 16 16 0 -2
BITMAP
0080
00fc
0080
1ffe
1102
17f4
1108
10f8
1080
17fe
20a0
2040
41b0
0e0e
0000
0000
ENDCHAR
STARTCHAR ch-85
ENCODING 85
SWIDTH 1000 0
DWIDTH 16 0
BBX 16 16 0 -2
BITMAP
0100
01fc
0100
3fff
2081
27fa
2080
20f8
2400
2fbc
3524
4247
0500
38ff
0000
0000
ENDCHAR
STARTCHAR ch-86
ENCODING 86
SWIDTH 1000 0
DWIDTH 16 0
BBX 16 16 0 -2
BITMAP
0080
00f8
0080
3fff
2081
27fa
2080
20f8
2008
27f0
2248
2ffe
4040
01c0
0000
0000
ENDCHAR
STARTCHAR ch-89
ENCODING 89
SWIDTH 1000 0
DWIDTH 16 0
BBX 16 16 0 -2
BITMAP
0080
00fc
0080
1ffe
1082
17f8
1080
1080
10f8
1544
1522
2540
4882
037c
0000
0000
ENDCHAR
STARTCHAR ch-91
ENCODING 91
SWIDTH 1000 0
DWIDTH 16 0
BBX 16 16 0 -2
BITMAP
0100
01fc
0100
1fff
1101
11fa
1f04
11fc
1000
1120
1524
173c
2120
5fff
0000
0000
ENDCHAR
STARTCHAR ch-92
ENCODING 92
SWIDTH 1000 0
DWIDTH 16 0
BBX 16 16 0 -2
BITMAP
0080
00f0
3ffe
2082
27f8
20f8
23f8
2248
2ffe
23f8
2040
4ffe
0182
0e0c
0000
0000
ENDCHAR
STARTCHAR ch-94
ENCODING 94
SWIDTH 1000 0
DWIDTH 16 0
BBX 16 16 0 -2
BITMAP
0080
00f0
3ffe
2082
27f8
20f8
23f0
2a10
2bf0
2ffc
2044
5fff
0110
0e0e
0000
0000
ENDCHAR
STARTCHAR ch-95
ENCODING 95
SWIDTH 1000 0
DWIDTH 16 0
BBX 16 16 0 -2
BITMAP
7c10
441c
4410
7dff
0111
017e
7d10
111e
1100
1d24
0524
0524
4925
3247
0000
0000
ENDCHAR
STARTCHAR ch-97
ENCODING 97
SWIDTH 1000 0
DWIDTH 16 0
BBX 16 16 0 -2
BITMAP
0080
00fc
0080
1fff
1101
17fa
1100
11f8
1492
179e
1090
2fff
4204
0402
0000
0000
ENDCHAR
STARTCHAR ch-98
ENCODING 98
SWIDTH 1000 0
DWIDTH 16 0
BBX 16 16 0 -2
BITMAP
0210
071e
7810
11ff
4991
2afc
2092
049e
7f80
04bc
24a4
14a4
1445
0883
0000
0000
ENDCHAR
STARTCHAR ch-99
ENCODING 99
SWIDTH 1000 0
DWIDTH 16 0
BBX 16 16 0 -2
BITMAP
0208
7b0f
0288
027f
7f49
027f
1248
124e
5e40
525e
5252
5352
7d93
0023
0000
0000
ENDCHAR
STARTCHAR ch-100
ENCODING 100
SWIDTH 1000 0
DWIDTH 16 0
BBX 16 16 0 -2
BITMAP
0808
0e0e
0808
7f7f
4949
7e7e
4848
4e4e
4040
5454
5454
5595
1515
2727
0000
0000
ENDCHAR
STARTCHAR ch-101
ENCODING 101
SWIDTH 1000 0
DWIDTH 16 0
BBX 16 16 0 -2
BITMAP
0821
0eff
0820
7f14
4909
4975
7e03
4800
4e42
40ff
5422
1515
1509
6777
0000
0000
ENDCHAR
STARTCHAR ch-103
ENCODING 103
SWIDTH 1000 0
DWIDTH 16 0
BBX 16 16 0 -2
BITMAP
0800
0fbe
7fc0
4840
7fbf
4808
4f88
491f
5f81
7f81
5101
5f81
110a
1f84
0000
0000
ENDCHAR
STARTCHAR ch-104
ENCODING 104
SWIDTH 1000 0
DWIDTH 16 0
BBX 16 16 0 -2
BITMAP
0700
0401
7fe1
2422
2fa4
2419
2701
2482
2fc4
2499
2d81
36c2
4484
0498
0000
0000
ENDCHAR
STARTCHAR ch-105
ENCODING 105
SWIDTH 1000 0
DWIDTH 16 0
BBX 16 16 0 -2
BITMAP
0810
2a1c
4910
08ff
3e51
227c
3e50
225c
3e40
0854
1c54
2a54
4995
08a3
0000
0000
ENDCHAR
STARTCHAR ch-106
ENCODING 106
SWIDTH 1000 0
DWIDTH 16 0
BBX 16 16 0 -2
BITMAP
1050
1c9f
112a
7f04
554a
795f
515d
5957
415f
6944
295f
2904
2d1f
4915
0000
0000
ENDCHAR
STARTCHAR ch-107
ENCODING 107
SWIDTH 1000 0
DWIDTH 16 0
BBX 16 16 0 -2
BITMAP
0080
0080
0084
1ffe
1084
1084
1084
1ffc
1084
0088
0084
00fe
3f02
1002
0000
0000
ENDCHAR
STARTCHAR ch-109
ENCODING 109
SWIDTH 1000 0
DWIDTH 16 0
BBX 16 16 0 -2
BITMAP
0800
087f
7f11
4911
4911
4911
7f11
4911
0811
0821
0a41
7f11
010a
0004
0000
0000
ENDCHAR
STARTCHAR ch-110
ENCODING 110
SWIDTH 1000 0
DWIDTH 16 0
BBX 16 16 0 -2
BITMAP
0800
083c
7f24
4924
4924
4924
7f24
4924
0824
0824
0a25
7f25
0145
0087
0000
0000
ENDCHAR
STARTCHAR ch-111
ENCODING 111
SWIDTH 1000 0
DWIDTH 16 0
BBX 16 16 0 -2
BITMAP
0801
0821
7f21
4921
4921
4921
7f21
4921
083f
0801
0a01
7f01
0101
0001
0000
0000
ENDCHAR
STARTCHAR ch-112
ENCODING 112
SWIDTH 1000 0
DWIDTH 16 0
BBX 16 16 0 -2
BITMAP
0800
0802
7f7f
4908
4908
4908
7f08
4908
0808
0808
0908
7f08
0128
0010
0000
0000
ENDCHAR
STARTCHAR ch-113
ENCODING 113
SWIDTH 1000 0
DWIDTH 16 0
BBX 16 16 0 -2
BITMAP
7ffc
0048
01e8
3e08
0248
3fe8
2248
2248
3fc8
0209
0249
03e5
0e33
7011
0000
0000
ENDCHAR
STARTCHAR ch-115
ENCODING 115
SWIDTH 1000 0
DWIDTH 16 0
BBX 16 16 0 -2
BITMAP
0820
0820
083f
7f21
4941
4901
4921
7f11
4909
0801
0a01
7f11
010a
0004
0000
0000
ENDCHAR
STARTCHAR ch-116
ENCODING 116
SWIDTH 1000 0
DWIDTH 16 0
BBX 16 16 0 -2
BITMAP
0801
087f
0810
7f10
4910
4910
497f
7f10
0810
0810
0a11
7f11
0111
001f
0000
0000
ENDCHAR
STARTCHAR ch-119
ENCODING 119
SWIDTH 1000 0
DWIDTH 16 0
BBX 16 16 0 -2
BITMAP
003e
0808
0808
7f08
4908
497f
4908
7f08
4908
0808
0a08
7f08
0108
0008
0000
0000
ENDCHAR
STARTCHAR ch-121
ENCODING 121
SWIDTH 1000 0
DWIDTH 16 0
BBX 16 16 0 -2
BITMAP
0804
08fe
3e10
2a10
2a10
2a10
2a10
3e10
2810
0810
0a10
0f10
7112
23ff
0000
0000
ENDCHAR
STARTCHAR ch-122
ENCODING 122
SWIDTH 1000 0
DWIDTH 16 0
BBX 16 16 0 -2
BITMAP
0110
7f90
1212
12ff
1292
1292
12fe
1210
1214
121e
12e3
2200
2201
41ff
0000
0000
ENDCHAR
STARTCHAR ch-123
ENCODING 123
SWIDTH 1000 0
DWIDTH 16 0
BBX 16 16 0 -2
BITMAP
0840
0820
0810
3e02
2bff
2a40
2a40
3e40
2840
0840
0a40
0f40
7142
203f
0000
0000
ENDCHAR
STARTCHAR ch-124
ENCODING 124
SWIDTH 1000 0
DWIDTH 16 0
BBX 16 16 0 -2
BITMAP
0840
0844
08fe
3f00
2a00
2afc
2a08
3e10
2820
0840
0a80
0e81
7281
207f
0000
0000
ENDCHAR
STARTCHAR ch-133
ENCODING 133
SWIDTH 1000 0
DWIDTH 16 0
BBX 16 16 0 -2
BITMAP
1007
10f8
1080
7cbe
54a2
54a2
54a2
7caa
10a4
10a0
14a0
7d21
0621
003f
0000
0000
ENDCHAR
STARTCHAR ch-134
ENCODING 134
SWIDTH 1000 0
DWIDTH 16 0
BBX 16 16 0 -2
BITMAP
0800
087f
0849
7f49
4949
4949
497f
7f40
0840
0840
0941
7f41
0141
003f
0000
0000
ENDCHAR
STARTCHAR ch-135
ENCODING 135
SWIDTH 1000 0
DWIDTH 16 0
BBX 16 16 0 -2
BITMAP
1000
10fe
1082
7c82
5482
54fe
5480
7c80
10a0
1090
1488
1504
7e02
0201
0000
0000
ENDCHAR
STARTCHAR ch-138
ENCODING 138
SWIDTH 1000 0
DWIDTH 16 0
BBX 16 16 0 -2
BITMAP
0020
0810
0808
087f
7f02
4922
4922
7f22
0822
0814
0a08
0f14
70a2
0041
0000
0000
ENDCHAR
STARTCHAR ch-139
ENCODING 139
SWIDTH 1000 0
DWIDTH 16 0
BBX 16 16 0 -2
BITMAP
0810
0810
0812
3eff
2a92
2a92
2a92
3eaa
28a6
0ac6
0f82
7182
208a
0084
0000
0000
ENDCHAR
STARTCHAR ch-140
ENCODING 140
SWIDTH 1000 0
DWIDTH 16 0
BBX 16 16 0 -2
BITMAP
0810
0812
081c
3ef0
2a10
2a10
2afe
2a10
3e12
09ff
0a10
0e10
7110
0010
0000
0000
ENDCHAR
STARTCHAR ch-141
ENCODING 141
SWIDTH 1000 0
DWIDTH 16 0
BBX 16 16 0 -2
BITMAP
0810
0890
0890
3e92
2af6
2a98
2a90
3e90
2890
0890
0a90
0eb1
72d1
208f
0000
0000
ENDCHAR
STARTCHAR ch-142
ENCODING 142
SWIDTH 1000 0
DWIDTH 16 0
BBX 16 16 0 -2
BITMAP
0800
087f
7f41
4941
4941
4941
497f
7f41
4941
0841
0941
7f41
017f
0041
0000
0000
ENDCHAR
STARTCHAR ch-144
ENCODING 144
SWIDTH 1000 0
DWIDTH 16 0
BBX 16 16 0 -2
BITMAP
1040
1040
107f
7c81
5501
5479
5401
7c01
107d
1001
1401
7c01
0412
000c
0000
0000
ENDCHAR
STARTCHAR ch-145
ENCODING 145
SWIDTH 1000 0
DWIDTH 16 0
BBX 16 16 0 -2
BITMAP
1010
1010
11ff
7c10
5410
54fe
5482
7c44
1028
1010
1428
7c44
0482
0101
0000
0000
ENDCHAR
STARTCHAR ch-147
ENCODING 147
SWIDTH 1000 0
DWIDTH 16 0
BBX 16 16 0 -2
BITMAP
0812
09fa
0812
3e12
2af2
2a82
2a92
3efa
2812
0a12
0e12
7212
00a2
0042
0000
0000
ENDCHAR
STARTCHAR ch-148
ENCODING 148
SWIDTH 1000 0
DWIDTH 16 0
BBX 16 16 0 -2
BITMAP
1001
11fe
1084
7c84
5484
54ff
5484
7c84
1084
1084
1495
7ca5
04c3
0181
0000
0000
ENDCHAR
STARTCHAR ch-149
ENCODING 149
SWIDTH 1000 0
DWIDTH 16 0
BBX 16 16 0 -2
BITMAP
1ff8
0080
0100
7fff
0410
0888
1084
6ffb
0888
0ff8
0080
0084
3ffe
0002
0000
0000
ENDCHAR
STARTCHAR ch-150
ENCODING 150
SWIDTH 1000 0
DWIDTH 16 0
BBX 16 16 0 -2
BITMAP
0800
087f
0800
7f00
497f
4924
4924
7f24
0824
0824
0a24
7f25
0145
0087
0000
0000
ENDCHAR
STARTCHAR ch-151
ENCODING 151
SWIDTH 1000 0
DWIDTH 16 0
BBX 16 16 0 -2
BITMAP
1010
1010
1010
7cfe
5412
5412
5412
7dff
1010
1010
1428
7c44
0482
0101
0000
0000
ENDCHAR
STARTCHAR ch-152
ENCODING 152
SWIDTH 1000 0
DWIDTH 16 0
BBX 16 16 0 -2
BITMAP
1024
1022
1020
7dff
5420
5428
5428
7c28
1028
1028
1448
7c89
0509
020f
0000
0000
ENDCHAR
STARTCHAR ch-153
ENCODING 153
SWIDTH 1000 0
DWIDTH 16 0
BBX 16 16 0 -2
BITMAP
1010
1028
1044
7c82
5579
5400
5400
7dfe
1002
1004
1408
7c10
0420
0040
0000
0000
ENDCHAR
STARTCHAR ch-154
ENCODING 154
SWIDTH 1000 0
DWIDTH 16 0
BBX 16 16 0 -2
BITMAP
0801
087e
0820
7f20
493f
4922
4922
7f22
0822
0822
0922
7f42
0102
0002
0000
0000
ENDCHAR
STARTCHAR ch-156
ENCODING 156
SWIDTH 1000 0
DWIDTH 16 0
BBX 16 16 0 -2
BITMAP
08fe
0804
3e44
2a44
2a84
2bff
3e0c
080c
0a14
0e24
7a44
2184
0614
0008
0000
0000
ENDCHAR
STARTCHAR ch-157
ENCODING 157
SWIDTH 1000 0
DWIDTH 16 0
BBX 16 16 0 -2
BITMAP
080e
09f0
0820
3e24
2a3e
2be0
2a22
3e3f
29e0
0a20
0f20
7121
2021
001f
0000
0000
ENDCHAR
STARTCHAR ch-158
ENCODING 158
SWIDTH 1000 0
DWIDTH 16 0
BBX 16 16 0 -2
BITMAP
0808
0808
080a
7f7f
4908
4908
4908
7f1c
082a
0849
0a08
7f08
0108
0008
0000
0000
ENDCHAR
STARTCHAR ch-161
ENCODING 161
SWIDTH 1000 0
DWIDTH 16 0
BBX 16 16 0 -2
BITMAP
1028
1044
1082
7d01
5400
54fe
5422
7c22
1022
1022
1442
7c82
0514
0008
0000
0000
ENDCHAR
STARTCHAR ch-162
ENCODING 162
SWIDTH 1000 0
DWIDTH 16 0
BBX 16 16 0 -2
BITMAP
0010
0808
08ff
0800
7f3c
4924
4924
7f24
0824
0824
0a24
7f25
0125
0047
0000
0000
ENDCHAR
STARTCHAR ch-163
ENCODING 163
SWIDTH 1000 0
DWIDTH 16 0
BBX 16 16 0 -2
BITMAP
0808
0828
0a28
3f28
2a44
2a93
2b12
3e10
2820
0a20
0e48
7284
20fe
0002
0000
0000
ENDCHAR
STARTCHAR ch-164
ENCODING 164
SWIDTH 1000 0
DWIDTH 16 0
BBX 16 16 0 -2
BITMAP
1ffc
0510
12a0
09c0
0620
0c18
7087
1ffc
1084
1ffc
0080
0084
3ffe
0002
0000
0000
ENDCHAR
STARTCHAR ch-165
ENCODING 165
SWIDTH 1000 0
DWIDTH 16 0
BBX 16 16 0 -2
BITMAP
0814
0822
0841
7f00
4922
4922
4922
7f22
0814
0808
0a14
7f22
0141
0081
0000
0000
ENDCHAR
STARTCHAR ch-167
ENCODING 167
SWIDTH 1000 0
DWIDTH 16 0
BBX 16 16 0 -2
BITMAP
0810
0828
0828
3e44
2a87
2b02
2a44
3e44
2844
0a44
0f44
7144
2084
0104
0000
0000
ENDCHAR
STARTCHAR ch-168
ENCODING 168
SWIDTH 1000 0
DWIDTH 16 0
BBX 16 16 0 -2
BITMAP
0810
0810
0810
3efe
2a10
2a12
2bff
3e10
2828
0a28
0f44
7144
2083
0302
0000
0000
ENDCHAR
STARTCHAR ch-169
ENCODING 169
SWIDTH 1000 0
DWIDTH 16 0
BBX 16 16 0 -2
BITMAP
1084
1084
1ffc
0200
7fff
0080
1ffc
1084
1084
1ffc
1084
0082
3ffe
0002
0000
0000
ENDCHAR
STARTCHAR ch-170
ENCODING 170
SWIDTH 1000 0
DWIDTH 16 0
BBX 16 16 0 -2
BITMAP
0804
0844
0a34
3f14
2a04
2a44
2a24
3e07
287c
0a04
0f04
7104
2004
0004
0000
0000
ENDCHAR
STARTCHAR ch-175
ENCODING 175
SWIDTH 1000 0
DWIDTH 16 0
BBX 16 16 0 -2
BITMAP
080e
0870
0a40
3f40
2a44
2a7e
2a48
2a48
3e48
2848
0a48
0f48
714a
23ff
0000
0000
ENDCHAR
STARTCHAR ch-176
ENCODING 176
SWIDTH 1000 0
DWIDTH 16 0
BBX 16 16 0 -2
BITMAP
1010
1010
1010
7cfe
5492
5492
5492
7cfe
1092
1092
1092
1492
7cfe
0482
0000
0000
ENDCHAR
STARTCHAR ch-177
ENCODING 177
SWIDTH 1000 0
DWIDTH 16 0
BBX 16 16 0 -2
BITMAP
0840
0860
0842
087f
3ea0
2aa0
2b24
2a3e
3e20
2822
0a3f
0f20
7120
2020
0000
0000
ENDCHAR
STARTCHAR ch-179
ENCODING 179
SWIDTH 1000 0
DWIDTH 16 0
BBX 16 16 0 -2
BITMAP
1001
11fe
1088
7c88
5488
54ff
5488
5488
7c88
1088
10a8
14c5
7c83
053d
0000
0000
ENDCHAR
STARTCHAR ch-180
ENCODING 180
SWIDTH 1000 0
DWIDTH 16 0
BBX 16 16 0 -2
BITMAP
1008
1048
1048
7c5f
5489
5529
55e9
7c49
1089
1129
15e9
1411
7c25
0442
0000
0000
ENDCHAR
STARTCHAR ch-181
ENCODING 181
SWIDTH 1000 0
DWIDTH 16 0
BBX 16 16 0 -2
BITMAP
0800
0802
0bff
3e04
2af4
2a94
2a94
3e94
28f4
0a94
0e04
7204
2014
0008
0000
0000
ENDCHAR
STARTCHAR ch-182
ENCODING 182
SWIDTH 1000 0
DWIDTH 16 0
BBX 16 16 0 -2
BITMAP
0844
0844
0844
3fff
2a44
2a44
2a44
3e7c
2844
0a44
0f44
7144
207c
0044
0000
0000
ENDCHAR
STARTCHAR ch-183
ENCODING 183
SWIDTH 1000 0
DWIDTH 16 0
BBX 16 16 0 -2
BITMAP
087f
0840
0840
7f40
497f
4941
4941
4941
7f41
087f
0840
0940
7f40
017f
0000
0000
ENDCHAR
STARTCHAR ch-184
ENCODING 184
SWIDTH 1000 0
DWIDTH 16 0
BBX 16 16 0 -2
BITMAP
1002
10fc
1080
7c80
54ff
5488
5488
5498
7c8c
548a
1089
1488
7c88
0508
0000
0000
ENDCHAR
STARTCHAR ch-185
ENCODING 185
SWIDTH 1000 0
DWIDTH 16 0
BBX 16 16 0 -2
BITMAP
1042
1042
1082
7d3f
5482
5482
5482
54a2
7c92
548a
1082
1482
7c8a
0484
0000
0000
ENDCHAR
STARTCHAR ch-186
ENCODING 186
SWIDTH 1000 0
DWIDTH 16 0
BBX 16 16 0 -2
BITMAP
1010
1010
10fe
7c92
5492
5492
54fe
5492
7c92
1092
11ff
1482
7c8a
0484
0000
0000
ENDCHAR
STARTCHAR ch-187
ENCODING 187
SWIDTH 1000 0
DWIDTH 16 0
BBX 16 16 0 -2
BITMAP
0840
7f40
0840
1c40
6b41
0841
083f
0080
1ffc
1084
1ffc
0082
3ffe
0002
0000
0000
ENDCHAR
STARTCHAR ch-188
ENCODING 188
SWIDTH 1000 0
DWIDTH 16 0
BBX 16 16 0 -2
BITMAP
1040
1040
107f
7c81
5501
5479
5449
5449
7c49
1079
1049
1401
7c01
0406
0000
0000
ENDCHAR
STARTCHAR ch-189
ENCODING 189
SWIDTH 1000 0
DWIDTH 16 0
BBX 16 16 0 -2
BITMAP
11ff
1004
1008
7c10
5420
5450
5494
5514
7c12
1011
1010
1410
7dff
0400
0000
0000
ENDCHAR
STARTCHAR ch-190
ENCODING 190
SWIDTH 1000 0
DWIDTH 16 0
BBX 16 16 0 -2
BITMAP
1008
1008
10ff
7c89
548a
5488
54be
54a2
7ca2
1094
1088
1494
7d22
0441
0000
0000
ENDCHAR
STARTCHAR ch-191
ENCODING 191
SWIDTH 1000 0
DWIDTH 16 0
BBX 16 16 0 -2
BITMAP
1020
1010
1000
7dff
5410
5420
5442
5484
7cf8
1010
1020
1442
7cff
0401
0000
0000
ENDCHAR
STARTCHAR ch-192
ENCODING 192
SWIDTH 1000 0
DWIDTH 16 0
BBX 16 16 0 -2
BITMAP
0820
0812
08ff
7e10
2a10
2a10
2a10
3efe
2a10
0810
0810
0a10
7e12
23ff
0000
0000
ENDCHAR
STARTCHAR ch-193
ENCODING 193
SWIDTH 1000 0
DWIDTH 16 0
BBX 16 16 0 -2
BITMAP
10ff
1011
7c11
5421
5441
5486
5400
54ff
7c81
1081
1081
1481
7cff
0481
0000
0000
ENDCHAR
STARTCHAR ch-194
ENCODING 194
SWIDTH 1000 0
DWIDTH 16 0
BBX 16 16 0 -2
BITMAP
1022
1021
11ff
7c20
5420
5422
5442
5482
7d02
1044
1028
1410
7c28
04c6
0000
0000
ENDCHAR
STARTCHAR ch-195
ENCODING 195
SWIDTH 1000 0
DWIDTH 16 0
BBX 16 16 0 -2
BITMAP
11ff
1010
1011
7dff
5511
5511
5511
5511
7d29
1145
1101
1501
7d05
0502
0000
0000
ENDCHAR
STARTCHAR ch-196
ENCODING 196
SWIDTH 1000 0
DWIDTH 16 0
BBX 16 16 0 -2
BITMAP
0810
0810
0812
3fff
2a10
2a10
2a12
3eff
2882
0a82
0e82
7282
20fe
0082
0000
0000
ENDCHAR
STARTCHAR ch-197
ENCODING 197
SWIDTH 1000 0
DWIDTH 16 0
BBX 16 16 0 -2
BITMAP
0810
0810
081f
7f10
4910
4910
497f
4941
7f41
0841
0841
0941
7f7f
0141
0000
0000
ENDCHAR
STARTCHAR ch-198
ENCODING 198
SWIDTH 1000 0
DWIDTH 16 0
BBX 16 16 0 -2
BITMAP
0800
0804
08fe
3e84
2a84
2a84
2afc
2a84
3e84
28fc
0a84
0e84
7a84
23ff
0000
0000
ENDCHAR
STARTCHAR ch-199
ENCODING 199
SWIDTH 1000 0
DWIDTH 16 0
BBX 16 16 0 -2
BITMAP
0820
0810
08ff
3e81
2b02
2a40
2a40
2a4c
3e50
2860
0a40
0e41
7241
203f
0000
0000
ENDCHAR
STARTCHAR ch-200
ENCODING 200
SWIDTH 1000 0
DWIDTH 16 0
BBX 16 16 0 -2
BITMAP
1010
1090
10fe
7c90
5510
5410
5410
55ff
7c10
5410
1028
1444
7c82
0501
0000
0000
ENDCHAR
STARTCHAR ch-201
ENCODING 201
SWIDTH 1000 0
DWIDTH 16 0
BBX 16 16 0 -2
BITMAP
0810
0828
0828
3e44
2a83
2b7a
2a00
3efe
2804
0a08
0f50
7120
2010
0010
0000
0000
ENDCHAR
STARTCHAR ch-203
ENCODING 203
SWIDTH 1000 0
DWIDTH 16 0
BBX 16 16 0 -2
BITMAP
3ffe
0084
04f8
0c80
0a80
11ff
6080
0ff8
0888
0ff8
0880
0088
3ffc
1004
0000
0000
ENDCHAR
STARTCHAR ch-204
ENCODING 204
SWIDTH 1000 0
DWIDTH 16 0
BBX 16 16 0 -2
BITMAP
1002
11fc
1080
7c84
54a4
54a4
54a4
54a4
7ca4
10ac
10ac
14b4
7ca2
0501
0000
0000
ENDCHAR
STARTCHAR ch-208
ENCODING 208
SWIDTH 1000 0
DWIDTH 16 0
BBX 16 16 0 -2
BITMAP
0828
0828
082a
3eff
2aaa
2aaa
2aaa
3efe
28aa
0aaa
0eaa
72aa
20fe
0082
0000
0000
ENDCHAR
STARTCHAR ch-209
ENCODING 209
SWIDTH 1000 0
DWIDTH 16 0
BBX 16 16 0 -2
BITMAP
0810
0820
0844
3efe
2a10
2a50
2a7e
2a90
3e10
09ff
0810
0a10
3e10
0210
0000
0000
ENDCHAR
STARTCHAR ch-211
ENCODING 211
SWIDTH 1000 0
DWIDTH 16 0
BBX 16 16 0 -2
BITMAP
0410
0414
3f92
0410
0410
7fff
0410
3f90
2492
2494
3f88
0415
04a3
7fc1
0000
0000
ENDCHAR
STARTCHAR ch-212
ENCODING 212
SWIDTH 1000 0
DWIDTH 16 0
BBX 16 16 0 -2
BITMAP
0802
08ff
0882
3e82
2aba
2aaa
2aaa
2aaa
3eaa
08ba
0a82
7e82
02fe
0082
0000
0000
ENDCHAR
STARTCHAR ch-214
ENCODING 214
SWIDTH 1000 0
DWIDTH 16 0
BBX 16 16 0 -2
BITMAP
1080
10a1
1082
7de4
5488
5481
54a2
7ca4
10a1
10a2
10a4
14a9
7d21
043f
0000
0000
ENDCHAR
STARTCHAR ch-215
ENCODING 215
SWIDTH 1000 0
DWIDTH 16 0
BBX 16 16 0 -2
BITMAP
0800
1ff8
2808
0ff8
0800
0ff8
0808
0ff8
0080
1ffc
1084
1ffd
0081
7fff
0000
0000
ENDCHAR
STARTCHAR ch-216
ENCODING 216
SWIDTH 1000 0
DWIDTH 16 0
BBX 16 16 0 -2
BITMAP
0882
0844
0800
3eff
2a10
2a10
2afe
2a10
3e10
29ff
0a10
7f10
0110
0010
0000
0000
ENDCHAR
STARTCHAR ch-217
ENCODING 217
SWIDTH 1000 0
DWIDTH 16 0
BBX 16 16 0 -2
BITMAP
0810
0814
08fe
3e10
2a10
2a12
2bff
2a10
3e14
28fe
0a10
0e10
7a12
21ff
0000
0000
ENDCHAR
STARTCHAR ch-218
ENCODING 218
SWIDTH 1000 0
DWIDTH 16 0
BBX 16 16 0 -2
BITMAP
11f9
1041
1041
7c45
5475
5455
5495
5515
7c55
5465
1041
1081
1505
7c02
0000
0000
ENDCHAR
STARTCHAR ch-219
ENCODING 219
SWIDTH 1000 0
DWIDTH 16 0
BBX 16 16 0 -2
BITMAP
0810
0890
08fe
3e90
2b10
2bff
2a30
3e38
0858
0a54
0e97
7b12
2210
0010
0000
0000
ENDCHAR
STARTCHAR ch-220
ENCODING 220
SWIDTH 1000 0
DWIDTH 16 0
BBX 16 16 0 -2
BITMAP
103f
1049
1089
7d09
577f
5509
5509
5509
7d3f
1108
1108
1110
1520
7d40
0000
0000
ENDCHAR
STARTCHAR ch-221
ENCODING 221
SWIDTH 1000 0
DWIDTH 16 0
BBX 16 16 0 -2
BITMAP
087f
0841
0841
7f7f
4941
4941
497f
7f40
4941
0852
084c
0a54
7f62
0141
0000
0000
ENDCHAR
STARTCHAR ch-222
ENCODING 222
SWIDTH 1000 0
DWIDTH 16 0
BBX 16 16 0 -2
BITMAP
080e
08f0
0810
3e10
2a12
2bff
2a10
3efe
2882
0a82
0e82
7282
20fe
0082
0000
0000
ENDCHAR
STARTCHAR ch-223
ENCODING 223
SWIDTH 1000 0
DWIDTH 16 0
BBX 16 16 0 -2
BITMAP
0820
0810
0802
08ff
3e00
2a82
2b45
2a44
3e28
0a10
0e28
7244
0083
0302
0000
0000
ENDCHAR
STARTCHAR ch-226
ENCODING 226
SWIDTH 1000 0
DWIDTH 16 0
BBX 16 16 0 -2
BITMAP
1044
1044
1028
7cfe
5444
5444
5444
7dff
1044
1044
1044
1444
7c84
0104
0000
0000
ENDCHAR
STARTCHAR ch-227
ENCODING 227
SWIDTH 1000 0
DWIDTH 16 0
BBX 16 16 0 -2
BITMAP
0808
0808
0808
7f7f
4908
4908
497f
7f00
087f
0841
0841
0a41
7f7f
0141
0000
0000
ENDCHAR
STARTCHAR ch-228
ENCODING 228
SWIDTH 1000 0
DWIDTH 16 0
BBX 16 16 0 -2
BITMAP
0810
0828
0828
3e44
2a44
2a82
2b7d
3e00
287c
0a44
0e44
7144
207c
0044
0000
0000
ENDCHAR
STARTCHAR ch-230
ENCODING 230
SWIDTH 1000 0
DWIDTH 16 0
BBX 16 16 0 -2
BITMAP
1010
1010
11ff
1010
7cfe
5412
55fe
5510
7dff
1011
1011
142a
7c44
0583
0000
0000
ENDCHAR
STARTCHAR ch-232
ENCODING 232
SWIDTH 1000 0
DWIDTH 16 0
BBX 16 16 0 -2
BITMAP
0800
087f
0808
7f10
4920
497f
4941
7f41
087f
0841
0841
0841
097f
7f41
0000
0000
ENDCHAR
STARTCHAR ch-233
ENCODING 233
SWIDTH 1000 0
DWIDTH 16 0
BBX 16 16 0 -2
BITMAP
3f3e
0424
0434
042d
0745
7883
0088
0ffc
0888
0ff8
0880
0084
3ffe
0002
0000
0000
ENDCHAR
STARTCHAR ch-234
ENCODING 234
SWIDTH 1000 0
DWIDTH 16 0
BBX 16 16 0 -2
BITMAP
0400
3fbf
0409
3f89
0409
3f91
0425
0842
0080
1ffc
1084
1ffc
0081
7fff
0000
0000
ENDCHAR
STARTCHAR ch-235
ENCODING 235
SWIDTH 1000 0
DWIDTH 16 0
BBX 16 16 0 -2
BITMAP
1040
10fc
1104
7c08
54ff
5480
54fe
54a2
7ca2
10a4
10a0
14a1
1521
7e3f
0000
0000
ENDCHAR
STARTCHAR ch-236
ENCODING 236
SWIDTH 1000 0
DWIDTH 16 0
BBX 16 16 0 -2
BITMAP
0808
3ffe
0808
0808
7fff
1004
2082
4ff9
0888
0888
0ff8
0080
0084
1ffe
0000
0000
ENDCHAR
STARTCHAR ch-237
ENCODING 237
SWIDTH 1000 0
DWIDTH 16 0
BBX 16 16 0 -2
BITMAP
0802
08ff
3f10
2a24
2a42
2aff
2a11
3e10
28fe
0810
0a10
0e10
7212
21ff
0000
0000
ENDCHAR
STARTCHAR ch-245
ENCODING 245
SWIDTH 1000 0
DWIDTH 16 0
BBX 16 16 0 -2
BITMAP
11ff
1000
1049
7c92
5524
5492
5449
7c00
11ff
1010
1010
1410
7c10
05ff
0000
0000
ENDCHAR
STARTCHAR ch-246
ENCODING 246
SWIDTH 1000 0
DWIDTH 16 0
BBX 16 16 0 -2
BITMAP
1002
11fc
1121
7c92
5454
5404
55ff
5484
7c44
1024
1004
1404
7c14
0408
0000
0000
ENDCHAR
STARTCHAR ch-247
ENCODING 247
SWIDTH 1000 0
DWIDTH 16 0
BBX 16 16 0 -2
BITMAP
0012
1011
11ff
7c10
5410
5492
5454
7c38
1054
1092
1511
7c10
0450
0020
0000
0000
ENDCHAR
STARTCHAR ch-248
ENCODING 248
SWIDTH 1000 0
DWIDTH 16 0
BBX 16 16 0 -2
BITMAP
0911
0892
0854
7e10
4afe
4a82
4afe
7e82
0882
08fe
0a82
7e82
028a
0084
0000
0000
ENDCHAR
STARTCHAR ch-249
ENCODING 249
SWIDTH 1000 0
DWIDTH 16 0
BBX 16 16 0 -2
BITMAP
08fe
0828
3e10
2afe
2a92
2a92
2afe
3e92
2892
0afe
0e92
7a92
2092
0086
0000
0000
ENDCHAR
STARTCHAR ch-250
ENCODING 250
SWIDTH 1000 0
DWIDTH 16 0
BBX 16 16 0 -2
BITMAP
1010
1010
11ff
1010
7c10
5454
5454
54d6
7d39
1010
1028
1444
7c82
0501
0000
0000
ENDCHAR
STARTCHAR ch-251
ENCODING 251
SWIDTH 1000 0
DWIDTH 16 0
BBX 16 16 0 -2
BITMAP
0884
0848
0800
3efc
2a84
2a84
2a84
3efc
2848
0a48
0e48
7a89
2089
0107
0000
0000
ENDCHAR
STARTCHAR ch-254
ENCODING 254
SWIDTH 1000 0
DWIDTH 16 0
BBX 16 16 0 -2
BITMAP
0808
086a
09c9
3e48
2bff
2a48
2a6a
2bcc
3e48
2854
0a64
0e45
7943
2081
0000
0000
ENDCHAR
STARTCHAR ch-256
ENCODING 256
SWIDTH 1000 0
DWIDTH 16 0
BBX 16 16 0 -2
BITMAP
0002
3fff
2222
3ffe
0800
0ffe
1102
2fe2
4922
0fe2
0112
01f2
3f12
1006
0000
0000
ENDCHAR
STARTCHAR ch-257
ENCODING 257
SWIDTH 1000 0
DWIDTH 16 0
BBX 16 16 0 -2
BITMAP
1040
1040
10ff
7d00
5400
54ff
5411
7c12
1010
109e
1490
1490
7d50
063f
0000
0000
ENDCHAR
STARTCHAR ch-258
ENCODING 258
SWIDTH 1000 0
DWIDTH 16 0
BBX 16 16 0 -2
BITMAP
0840
087c
0844
3ea4
2b18
2a24
2ad3
2afe
3e10
28fe
0a10
0fff
7210
2010
0000
0000
ENDCHAR
STARTCHAR ch-259
ENCODING 259
SWIDTH 1000 0
DWIDTH 16 0
BBX 16 16 0 -2
BITMAP
1ffe
17fc
1000
1fff
1244
1228
1318
1247
17fc
1444
27fc
2042
5fff
0001
0000
0000
ENDCHAR
STARTCHAR ch-260
ENCODING 260
SWIDTH 1000 0
DWIDTH 16 0
BBX 16 16 0 -2
BITMAP
00ff
1080
1080
7cbe
5480
5480
54bf
7ca1
10b2
10ac
14a4
14a2
7d31
0420
0000
0000
ENDCHAR
STARTCHAR ch-261
ENCODING 261
SWIDTH 1000 0
DWIDTH 16 0
BBX 16 16 0 -2
BITMAP
1012
1011
11ff
7c10
55ff
5511
5511
7dff
1111
1111
15ff
1511
7d11
0513
0000
0000
ENDCHAR
STARTCHAR ch-262
ENCODING 262
SWIDTH 1000 0
DWIDTH 16 0
BBX 16 16 0 -2
BITMAP
08fc
0884
0884
3efc
2a84
2a84
2afc
3e84
2884
0afc
0f50
7151
2091
030f
0000
0000
ENDCHAR
STARTCHAR ch-263
ENCODING 263
SWIDTH 1000 0
DWIDTH 16 0
BBX 16 16 0 -2
BITMAP
047c
7f40
0442
077f
3c48
0488
1508
0888
1ffc
1084
1ffc
0082
3fff
0001
0000
0000
ENDCHAR
STARTCHAR ch-264
ENCODING 264
SWIDTH 1000 0
DWIDTH 16 0
BBX 16 16 0 -2
BITMAP
107e
1042
7d42
557e
5500
55fe
7c12
5412
11ff
1010
1428
7c44
0082
0101
0000
0000
ENDCHAR
STARTCHAR ch-265
ENCODING 265
SWIDTH 1000 0
DWIDTH 16 0
BBX 16 16 0 -2
BITMAP
100e
11f0
1092
7c52
5444
55fe
5404
5418
7c10
13ff
1010
1410
7c50
0420
0000
0000
ENDCHAR
STARTCHAR ch-266
ENCODING 266
SWIDTH 1000 0
DWIDTH 16 0
BBX 16 16 0 -2
BITMAP
0871
09c1
0841
3e45
2bf5
2ac5
2ae5
3f55
2945
0a45
0e41
7241
2045
0042
0000
0000
ENDCHAR
STARTCHAR ch-267
ENCODING 267
SWIDTH 1000 0
DWIDTH 16 0
BBX 16 16 0 -2
BITMAP
0020
1010
10fe
7c82
54fe
5482
54fe
7c82
1080
10a4
1098
14a8
7cc4
0583
0000
0000
ENDCHAR
STARTCHAR ch-268
ENCODING 268
SWIDTH 1000 0
DWIDTH 16 0
BBX 16 16 0 -2
BITMAP
1108
1108
1108
7def
5508
5508
5529
5549
7d8f
1010
10fe
1410
7c10
05ff
0000
0000
ENDCHAR
STARTCHAR ch-269
ENCODING 269
SWIDTH 1000 0
DWIDTH 16 0
BBX 16 16 0 -2
BITMAP
1010
1028
1044
7c82
5501
547c
5410
7cfe
1010
1054
1093
1511
7c50
0420
0000
0000
ENDCHAR
STARTCHAR ch-270
ENCODING 270
SWIDTH 1000 0
DWIDTH 16 0
BBX 16 16 0 -2
BITMAP
087f
0841
0841
7f7f
4900
497f
4941
7f7f
0841
087f
0941
0941
7f41
0183
0000
0000
ENDCHAR
STARTCHAR ch-273
ENCODING 273
SWIDTH 1000 0
DWIDTH 16 0
BBX 16 16 0 -2
BITMAP
7efe
0810
1c9e
0490
29fe
1000
2fff
0080
1ffc
1084
1ffc
0082
3ffe
0002
0000
0000
ENDCHAR
STARTCHAR ch-274
ENCODING 274
SWIDTH 1000 0
DWIDTH 16 0
BBX 16 16 0 -2
BITMAP
1003
13dc
1044
7c84
5484
5517
57d4
5454
7c54
1454
1c9f
7580
2240
043f
0000
0000
ENDCHAR
STARTCHAR ch-275
ENCODING 275
SWIDTH 1000 0
DWIDTH 16 0
BBX 16 16 0 -2
BITMAP
1006
13b8
1088
7c88
5508
567f
5788
7c88
5288
1588
1cbe
6540
0220
041f
0000
0000
ENDCHAR
STARTCHAR ch-280
ENCODING 280
SWIDTH 1000 0
DWIDTH 16 0
BBX 16 16 0 -2
BITMAP
1100
1102
7dff
5692
5492
57f2
7c92
5092
1492
1d12
755e
2232
0420
0800
0000
0000
ENDCHAR
STARTCHAR ch-281
ENCODING 281
SWIDTH 1000 0
DWIDTH 16 0
BBX 16 16 0 -2
BITMAP
1080
1080
1084
7fea
5491
54a0
5484
7dc4
12a4
1088
1491
14bf
7c81
0080
0000
0000
ENDCHAR
STARTCHAR ch-282
ENCODING 282
SWIDTH 1000 0
DWIDTH 16 0
BBX 16 16 0 -2
BITMAP
0220
3e3e
0220
1e3c
0220
3e3e
02a0
0080
1ffc
1084
1ffc
0081
7fff
0001
0000
0000
ENDCHAR
STARTCHAR ch-283
ENCODING 283
SWIDTH 1000 0
DWIDTH 16 0
BBX 16 16 0 -2
BITMAP
10ff
1081
10ff
7c88
5488
54ff
5488
5488
7cbf
1121
1421
7c21
043f
0021
0000
0000
ENDCHAR
STARTCHAR ch-284
ENCODING 284
SWIDTH 1000 0
DWIDTH 16 0
BBX 16 16 0 -2
BITMAP
0100
3fff
2101
4492
1464
2582
0608
3bf8
1ffc
1084
1ffc
0082
3ffe
1002
0000
0000
ENDCHAR
STARTCHAR ch-286
ENCODING 286
SWIDTH 1000 0
DWIDTH 16 0
BBX 16 16 0 -2
BITMAP
0844
09ff
0844
3e44
2a7c
2a44
2a7c
3e44
2844
0bff
0e00
7244
2083
0101
0000
0000
ENDCHAR
STARTCHAR ch-288
ENCODING 288
SWIDTH 1000 0
DWIDTH 16 0
BBX 16 16 0 -2
BITMAP
11ff
1101
7d7d
5511
5511
55ff
7d11
1139
1155
1193
1511
1511
7d01
05ff
0000
0000
ENDCHAR
STARTCHAR ch-289
ENCODING 289
SWIDTH 1000 0
DWIDTH 16 0
BBX 16 16 0 -2
BITMAP
0848
09fe
0848
3e48
2bff
2a00
2afe
3e84
2884
0afc
0e84
7a84
20fc
0084
0000
0000
ENDCHAR
STARTCHAR ch-290
ENCODING 290
SWIDTH 1000 0
DWIDTH 16 0
BBX 16 16 0 -2
BITMAP
08fe
0804
0818
3e08
2aff
2a08
2a48
3e28
2810
08fe
0aaa
0eaa
72aa
21ff
0000
0000
ENDCHAR
STARTCHAR ch-291
ENCODING 291
SWIDTH 1000 0
DWIDTH 16 0
BBX 16 16 0 -2
BITMAP
0882
0844
09ff
3e10
2afe
2a10
2a10
2bff
3e28
0a28
0f48
7149
2089
0307
0000
0000
ENDCHAR
STARTCHAR ch-292
ENCODING 292
SWIDTH 1000 0
DWIDTH 16 0
BBX 16 16 0 -2
BITMAP
0802
7f7c
0840
087f
1c44
6b44
0884
0884
1ffc
1084
1ffc
0082
3ffe
0002
0000
0000
ENDCHAR
STARTCHAR ch-293
ENCODING 293
SWIDTH 1000 0
DWIDTH 16 0
BBX 16 16 0 -2
BITMAP
0843
084c
0848
3ff8
2a48
2acf
2aea
3f4a
294a
0a4a
0e52
7252
2062
0042
0000
0000
ENDCHAR
STARTCHAR ch-294
ENCODING 294
SWIDTH 1000 0
DWIDTH 16 0
BBX 16 16 0 -2
BITMAP
1010
1028
1044
7c82
557d
5400
54fe
7caa
10aa
10fe
10aa
14aa
7c82
0084
0000
0000
ENDCHAR
STARTCHAR ch-295
ENCODING 295
SWIDTH 1000 0
DWIDTH 16 0
BBX 16 16 0 -2
BITMAP
1001
11fe
1100
7dff
5501
55ff
5510
7d12
11ff
1110
1110
1528
7e44
0483
0000
0000
ENDCHAR
STARTCHAR ch-296
ENCODING 296
SWIDTH 1000 0
DWIDTH 16 0
BBX 16 16 0 -2
BITMAP
1010
11ff
1010
7cfe
5412
55ff
5412
54fe
7c10
1050
105e
1450
14b0
7d1f
0000
0000
ENDCHAR
STARTCHAR ch-297
ENCODING 297
SWIDTH 1000 0
DWIDTH 16 0
BBX 16 16 0 -2
BITMAP
08ff
0892
0892
3efe
2a92
2a92
2afe
2a82
3eba
28aa
0eba
7282
210a
0204
0000
0000
ENDCHAR
STARTCHAR ch-298
ENCODING 298
SWIDTH 1000 0
DWIDTH 16 0
BBX 16 16 0 -2
BITMAP
1080
10ff
7d01
5641
5441
55fd
7c21
11fd
1021
1125
1525
15fd
7c01
0006
0000
0000
ENDCHAR
STARTCHAR ch-300
ENCODING 300
SWIDTH 1000 0
DWIDTH 16 0
BBX 16 16 0 -2
BITMAP
10fc
1004
1008
7c10
5410
5513
55fd
5539
7d55
1193
1511
1511
7d01
05ff
0000
0000
ENDCHAR
STARTCHAR ch-301
ENCODING 301
SWIDTH 1000 0
DWIDTH 16 0
BBX 16 16 0 -2
BITMAP
1040
10fe
1102
7c04
5408
5400
5450
548f
7d01
1101
11ef
1501
7d01
05ff
0000
0000
ENDCHAR
STARTCHAR ch-302
ENCODING 302
SWIDTH 1000 0
DWIDTH 16 0
BBX 16 16 0 -2
BITMAP
1014
1012
13ff
7c10
55d2
5552
5552
7d54
51d4
1408
1cd8
6729
0245
0003
0000
0000
ENDCHAR
STARTCHAR ch-304
ENCODING 304
SWIDTH 1000 0
DWIDTH 16 0
BBX 16 16 0 -2
BITMAP
3f7f
2149
3f49
217f
3f40
2141
437f
0080
1ffc
1084
1ffc
0082
3ffe
0002
0000
0000
ENDCHAR
STARTCHAR ch-305
ENCODING 305
SWIDTH 1000 0
DWIDTH 16 0
BBX 16 16 0 -2
BITMAP
0810
08ff
0892
3e92
2afe
2a92
2a92
2afe
3e28
2848
0bff
0e08
7208
2008
0000
0000
ENDCHAR
STARTCHAR ch-306
ENCODING 306
SWIDTH 1000 0
DWIDTH 16 0
BBX 16 16 0 -2
BITMAP
10fc
1010
11ff
7c92
5511
5450
5444
7dff
1044
1044
1428
1410
7c28
05c7
0000
0000
ENDCHAR
STARTCHAR ch-307
ENCODING 307
SWIDTH 1000 0
DWIDTH 16 0
BBX 16 16 0 -2
BITMAP
0010
11ff
1000
7cfe
5482
54fe
5400
547c
7c08
1010
11ff
1408
7c08
0030
0000
0000
ENDCHAR
STARTCHAR ch-308
ENCODING 308
SWIDTH 1000 0
DWIDTH 16 0
BBX 16 16 0 -2
BITMAP
08fe
0884
08fc
3e84
2afc
2a40
2a7f
3ea9
2929
0a49
0e91
7321
204a
0084
0000
0000
ENDCHAR
STARTCHAR ch-309
ENCODING 309
SWIDTH 1000 0
DWIDTH 16 0
BBX 16 16 0 -2
BITMAP
1129
1129
1129
7d29
55ef
5501
55ff
7d01
11ef
1129
1529
1529
7d29
0201
0000
0000
ENDCHAR
STARTCHAR ch-311
ENCODING 311
SWIDTH 1000 0
DWIDTH 16 0
BBX 16 16 0 -2
BITMAP
0892
0854
3efe
2a10
2bff
2a28
2a44
3eff
2944
0a44
0e54
7249
2041
003f
0000
0000
ENDCHAR
STARTCHAR ch-312
ENCODING 312
SWIDTH 1000 0
DWIDTH 16 0
BBX 16 16 0 -2
BITMAP
7e7e
4842
7e42
4224
7e18
4818
7ee7
0080
1ffc
1084
1ffc
0081
7fff
0001
0000
0000
ENDCHAR
STARTCHAR ch-314
ENCODING 314
SWIDTH 1000 0
DWIDTH 16 0
BBX 16 16 0 -2
BITMAP
1040
104e
1082
7d82
54ee
5482
5482
54fe
7c48
1048
1048
1449
1489
7d0f
0000
0000
ENDCHAR
STARTCHAR ch-315
ENCODING 315
SWIDTH 1000 0
DWIDTH 16 0
BBX 16 16 0 -2
BITMAP
0810
09ff
0810
3efe
2a10
2bff
2afe
3e82
28fe
0a82
0efe
7282
208a
0084
0000
0000
ENDCHAR
STARTCHAR ch-316
ENCODING 316
SWIDTH 1000 0
DWIDTH 16 0
BBX 16 16 0 -2
BITMAP
0820
0844
08c4
7f7f
4944
4944
497f
7f44
0844
087f
0844
0944
7f7f
0140
0000
0000
ENDCHAR
STARTCHAR ch-318
ENCODING 318
SWIDTH 1000 0
DWIDTH 16 0
BBX 16 16 0 -2
BITMAP
08ff
0892
3e92
2afe
2a92
2a92
2afe
3e10
29ff
0a38
0e54
7293
2112
0010
0000
0000
ENDCHAR
STARTCHAR ch-319
ENCODING 319
SWIDTH 1000 0
DWIDTH 16 0
BBX 16 16 0 -2
BITMAP
0810
09ff
0901
3e02
2a80
2aee
2aaa
2b2a
3eaa
286e
0e48
7289
2109
0207
0000
0000
ENDCHAR
STARTCHAR ch-320
ENCODING 320
SWIDTH 1000 0
DWIDTH 16 0
BBX 16 16 0 -2
BITMAP
1010
11ff
1010
7cfe
5492
54fe
5492
54fe
7c38
1054
1092
1511
7c10
0010
0000
0000
ENDCHAR
STARTCHAR ch-321
ENCODING 321
SWIDTH 1000 0
DWIDTH 16 0
BBX 16 16 0 -2
BITMAP
3ffe
0220
1e3c
1004
1e3c
0220
3ffe
0000
0080
1ffc
1084
1ffc
0081
7fff
0000
0000
ENDCHAR
STARTCHAR ch-322
ENCODING 322
SWIDTH 1000 0
DWIDTH 16 0
BBX 16 16 0 -2
BITMAP
1141
115e
1150
7d50
55d0
551e
551a
7dda
115a
115a
115a
1564
7d4a
0551
0000
0000
ENDCHAR
STARTCHAR ch-323
ENCODING 323
SWIDTH 1000 0
DWIDTH 16 0
BBX 16 16 0 -2
BITMAP
13ff
1231
1231
7d4a
5484
554a
5631
5400
57ff
7e31
114a
1484
7d4a
0631
0000
0000
ENDCHAR
STARTCHAR ch-326
ENCODING 326
SWIDTH 1000 0
DWIDTH 16 0
BBX 16 16 0 -2
BITMAP
1010
1054
1054
7dd7
5454
5410
54fe
7c10
1010
11ff
1010
1410
7c10
0410
0000
0000
ENDCHAR
STARTCHAR ch-332
ENCODING 332
SWIDTH 1000 0
DWIDTH 16 0
BBX 16 16 0 -2
BITMAP
10e2
138a
1086
7c92
548a
57e2
5582
55df
7ea2
1082
1482
7e82
0282
0082
0000
0000
ENDCHAR
STARTCHAR ch-333
ENCODING 333
SWIDTH 1000 0
DWIDTH 16 0
BBX 16 16 0 -2
BITMAP
11e0
112f
1129
7de9
5529
5529
55e9
5509
7d09
110e
1148
1568
7d88
0508
0000
0000
ENDCHAR
STARTCHAR ch-334
ENCODING 334
SWIDTH 1000 0
DWIDTH 16 0
BBX 16 16 0 -2
BITMAP
10fe
1082
10fe
7c82
54fe
5440
54ff
7d11
1091
10a9
10c5
1481
7cfd
0407
0000
0000
ENDCHAR
STARTCHAR ch-335
ENCODING 335
SWIDTH 1000 0
DWIDTH 16 0
BBX 16 16 0 -2
BITMAP
1010
11ff
1000
7cfe
5482
54fe
5400
7dff
1101
157d
1c10
7010
0010
0030
0000
0000
ENDCHAR
STARTCHAR ch-336
ENCODING 336
SWIDTH 1000 0
DWIDTH 16 0
BBX 16 16 0 -2
BITMAP
11ff
1101
11ff
7d01
55ff
5400
54fe
7c82
10fe
1482
1cfe
7082
00fe
0082
0000
0000
ENDCHAR
STARTCHAR ch-337
ENCODING 337
SWIDTH 1000 0
DWIDTH 16 0
BBX 16 16 0 -2
BITMAP
11ff
1011
7c9e
54d0
553f
5400
7cfe
1082
10fe
1482
1cfe
7082
0082
0106
0000
0000
ENDCHAR
STARTCHAR ch-338
ENCODING 338
SWIDTH 1000 0
DWIDTH 16 0
BBX 16 16 0 -2
BITMAP
11ff
1020
1040
7dff
5529
5529
7d39
1129
1129
1139
1529
1d29
71ff
0101
0000
0000
ENDCHAR
STARTCHAR ch-339
ENCODING 339
SWIDTH 1000 0
DWIDTH 16 0
BBX 16 16 0 -2
BITMAP
1010
1028
1044
7c82
557d
5600
55e2
552a
7dea
512a
15ea
1d2a
6522
0164
0000
0000
ENDCHAR
STARTCHAR ch-340
ENCODING 340
SWIDTH 1000 0
DWIDTH 16 0
BBX 16 16 0 -2
BITMAP
1108
1108
11ef
7d08
5529
55cf
5400
5440
7cfe
1182
10fe
1482
1cfe
7082
0000
0000
ENDCHAR
STARTCHAR ch-341
ENCODING 341
SWIDTH 1000 0
DWIDTH 16 0
BBX 16 16 0 -2
BITMAP
0c08
1208
2d08
40ff
3f49
2149
3f49
217f
3f08
2408
240a
2a09
717f
2001
0000
0000
ENDCHAR
STARTCHAR ch-342
ENCODING 342
SWIDTH 1000 0
DWIDTH 16 0
BBX 16 16 0 -2
BITMAP
1010
11ff
1101
7d01
54fe
5400
54fe
7c82
10fe
1082
10fe
1400
7c00
05ff
0000
0000
ENDCHAR
STARTCHAR ch-343
ENCODING 343
SWIDTH 1000 0
DWIDTH 16 0
BBX 16 16 0 -2
BITMAP
0820
08fe
0882
3efe
2a82
2afe
2a00
2bff
3e10
2810
0afe
0e10
7a10
21ff
0000
0000
ENDCHAR
STARTCHAR ch-344
ENCODING 344
SWIDTH 1000 0
DWIDTH 16 0
BBX 16 16 0 -2
BITMAP
11ff
1100
117e
7d42
557e
5542
557e
7d24
11ff
1124
1518
1de7
7100
01ff
0000
0000
ENDCHAR
STARTCHAR ch-345
ENCODING 345
SWIDTH 1000 0
DWIDTH 16 0
BBX 16 16 0 -2
BITMAP
080c
08f2
08ff
3e82
2afe
2a80
2aff
3ea5
29a5
0aff
0ea5
72a5
20a5
0083
0000
0000
ENDCHAR
STARTCHAR ch-346
ENCODING 346
SWIDTH 1000 0
DWIDTH 16 0
BBX 16 16 0 -2
BITMAP
107c
1004
1028
7dff
5429
544a
5488
7c18
11ff
1054
1492
1d11
7010
0010
0000
0000
ENDCHAR
STARTCHAR ch-347
ENCODING 347
SWIDTH 1000 0
DWIDTH 16 0
BBX 16 16 0 -2
BITMAP
1005
11ff
1104
7dfc
5504
5554
7dfc
1155
1154
1156
1554
1d2d
7253
0089
0000
0000
ENDCHAR
STARTCHAR ch-348
ENCODING 348
SWIDTH 1000 0
DWIDTH 16 0
BBX 16 16 0 -2
BITMAP
1040
10fe
1104
7c08
54fe
5482
54fe
7c82
10fe
1082
14fe
1c44
7082
0103
0000
0000
ENDCHAR
STARTCHAR ch-349
ENCODING 349
SWIDTH 1000 0
DWIDTH 16 0
BBX 16 16 0 -2
BITMAP
1020
103c
1024
7c78
5410
55ff
5430
7c49
1196
1024
14ce
1c15
70e4
0018
0000
0000
ENDCHAR
STARTCHAR ch-350
ENCODING 350
SWIDTH 1000 0
DWIDTH 16 0
BBX 16 16 0 -2
BITMAP
0000
11ff
1111
7d11
55ff
5500
557f
7d41
117f
1141
157f
1d41
727f
0041
0000
0000
ENDCHAR
STARTCHAR ch-351
ENCODING 351
SWIDTH 1000 0
DWIDTH 16 0
BBX 16 16 0 -2
BITMAP
11ff
1111
11ff
7d11
55ff
5400
54fe
7c82
10fe
1482
1cfe
7082
0082
0106
0000
0000
ENDCHAR
STARTCHAR ch-352
ENCODING 352
SWIDTH 1000 0
DWIDTH 16 0
BBX 16 16 0 -2
BITMAP
09ff
0800
087c
3e44
2a7c
2a00
2afe
3e92
2892
0afe
0e92
7292
20fe
0082
0000
0000
ENDCHAR
STARTCHAR ch-353
ENCODING 353
SWIDTH 1000 0
DWIDTH 16 0
BBX 16 16 0 -2
BITMAP
11ff
1010
1060
7dff
5529
5529
5529
7d03
1010
11ff
1428
1c44
7082
0101
0000
0000
ENDCHAR
STARTCHAR ch-354
ENCODING 354
SWIDTH 1000 0
DWIDTH 16 0
BBX 16 16 0 -2
BITMAP
10fe
1010
1020
7cfe
5482
54fe
5482
7cfe
1082
10fe
1000
1444
7c82
0502
0000
0000
ENDCHAR
STARTCHAR ch-355
ENCODING 355
SWIDTH 1000 0
DWIDTH 16 0
BBX 16 16 0 -2
BITMAP
1110
1090
13df
7d20
5500
55df
5542
7d44
115f
1144
1144
1644
7c54
04c8
0000
0000
ENDCHAR
STARTCHAR ch-356
ENCODING 356
SWIDTH 1000 0
DWIDTH 16 0
BBX 16 16 0 -2
BITMAP
1044
1028
11ff
7c28
5428
54fe
54aa
7caa
10ce
1082
10fe
1482
7cfe
0482
0000
0000
ENDCHAR
STARTCHAR ch-357
ENCODING 357
SWIDTH 1000 0
DWIDTH 16 0
BBX 16 16 0 -2
BITMAP
3f20
0a3f
0464
7f94
0d08
1414
24a3
0c80
1ffc
1084
1ffc
0082
7fff
0001
0000
0000
ENDCHAR
STARTCHAR ch-358
ENCODING 358
SWIDTH 1000 0
DWIDTH 16 0
BBX 16 16 0 -2
BITMAP
11ef
1121
1121
7d21
55ef
5500
55df
7d11
1111
11d1
150a
7d04
050a
0111
0000
0000
ENDCHAR
STARTCHAR ch-359
ENCODING 359
SWIDTH 1000 0
DWIDTH 16 0
BBX 16 16 0 -2
BITMAP
1044
11ff
1044
7c10
5410
54fe
5492
7c92
11ff
1010
1428
1c44
7082
0101
0000
0000
ENDCHAR
STARTCHAR ch-360
ENCODING 360
SWIDTH 1000 0
DWIDTH 16 0
BBX 16 16 0 -2
BITMAP
3ff0
0210
0a10
0611
0311
041f
0808
3e3e
2a2a
2a2a
3e3e
0909
7f7f
0101
0000
0000
ENDCHAR
STARTCHAR ch-361
ENCODING 361
SWIDTH 1000 0
DWIDTH 16 0
BBX 16 16 0 -2
BITMAP
0000
11fe
1010
11ff
7c10
54fe
5492
54fe
7c92
10fe
1410
1cfe
7010
01ff
0000
0000
ENDCHAR
STARTCHAR ch-362
ENCODING 362
SWIDTH 1000 0
DWIDTH 16 0
BBX 16 16 0 -2
BITMAP
10fe
1082
10fe
7c82
54fe
5400
55ff
7c40
10ff
1149
1449
1c91
7121
0006
0000
0000
ENDCHAR
STARTCHAR ch-363
ENCODING 363
SWIDTH 1000 0
DWIDTH 16 0
BBX 16 16 0 -2
BITMAP
0010
1010
10fe
7c12
5414
55ff
5420
7c7e
10c2
1142
107e
1442
7c42
047e
0000
0000
ENDCHAR
STARTCHAR ch-364
ENCODING 364
SWIDTH 1000 0
DWIDTH 16 0
BBX 16 16 0 -2
BITMAP
1028
1092
10aa
7cc6
54fe
5444
5482
7d21
107c
14c4
1c28
7010
0028
00c6
0000
0000
ENDCHAR
STARTCHAR ch-365
ENCODING 365
SWIDTH 1000 0
DWIDTH 16 0
BBX 16 16 0 -2
BITMAP
10fe
1082
10fe
7c82
54fe
5400
55ff
7c10
1010
1090
149e
1c90
7150
023f
0000
0000
ENDCHAR
STARTCHAR ch-366
ENCODING 366
SWIDTH 1000 0
DWIDTH 16 0
BBX 16 16 0 -2
BITMAP
1040
107f
1080
7d7e
5442
547e
5442
547e
7c20
107e
10a4
1518
7c64
0583
0000
0000
ENDCHAR
STARTCHAR ch-367
ENCODING 367
SWIDTH 1000 0
DWIDTH 16 0
BBX 16 16 0 -2
BITMAP
11fe
1054
7c92
5511
54fe
5420
7dff
1040
10fe
1544
1c28
7010
0028
01c7
0000
0000
ENDCHAR
STARTCHAR ch-371
ENCODING 371
SWIDTH 1000 0
DWIDTH 16 0
BBX 16 16 0 -2
BITMAP
0010
11ff
1010
11ff
7c10
55ff
54fe
54a2
7c92
11ff
1092
148a
7cff
041c
0000
0000
ENDCHAR
STARTCHAR ch-372
ENCODING 372
SWIDTH 1000 0
DWIDTH 16 0
BBX 16 16 0 -2
BITMAP
1082
109f
1092
7ff2
549e
5492
55d2
7d5e
5152
1552
1dd2
7522
004a
0084
0000
0000
ENDCHAR
STARTCHAR ch-373
ENCODING 373
SWIDTH 1000 0
DWIDTH 16 0
BBX 16 16 0 -2
BITMAP
0108
7e2a
082a
7f1c
1c08
2a14
4963
0080
1ffc
1084
1ffc
0081
7fff
0001
0000
0000
ENDCHAR
STARTCHAR ch-374
ENCODING 374
SWIDTH 1000 0
DWIDTH 16 0
BBX 16 16 0 -2
BITMAP
0824
08a4
3fff
2aa4
2abc
2a80
3efe
2810
0bff
0e38
7a54
2093
0112
0010
0000
0000
ENDCHAR
STARTCHAR ch-375
ENCODING 375
SWIDTH 1000 0
DWIDTH 16 0
BBX 16 16 0 -2
BITMAP
1008
11ff
1100
7d41
5522
55ff
5508
7d49
1149
117f
1108
1508
7e10
0420
0000
0000
ENDCHAR
STARTCHAR ch-376
ENCODING 376
SWIDTH 1000 0
DWIDTH 16 0
BBX 16 16 0 -2
BITMAP
10fe
1082
109e
7c92
5492
55ff
5501
7d7d
1145
1545
157d
7d01
0505
0102
0000
0000
ENDCHAR
STARTCHAR ch-377
ENCODING 377
SWIDTH 1000 0
DWIDTH 16 0
BBX 16 16 0 -2
BITMAP
1000
10fe
7c92
5492
54aa
54c6
54fe
7c00
10fe
10aa
10aa
14aa
7caa
05ff
0000
0000
ENDCHAR
STARTCHAR ch-378
ENCODING 378
SWIDTH 1000 0
DWIDTH 16 0
BBX 16 16 0 -2
BITMAP
10fc
1010
10fe
7c92
5492
54fe
5410
7dff
1111
1515
1d7d
7105
0101
0103
0000
0000
ENDCHAR
STARTCHAR ch-379
ENCODING 379
SWIDTH 1000 0
DWIDTH 16 0
BBX 16 16 0 -2
BITMAP
0810
0812
09ff
3e10
2a10
2afe
2aaa
2a92
3efe
2892
0afe
0e92
7292
0086
0000
0000
ENDCHAR
STARTCHAR ch-385
ENCODING 385
SWIDTH 1000 0
DWIDTH 16 0
BBX 16 16 0 -2
BITMAP
1100
109e
1012
7dde
5452
549e
5510
7c94
1055
1052
1055
1458
7c80
057f
0000
0000
ENDCHAR
STARTCHAR ch-386
ENCODING 386
SWIDTH 1000 0
DWIDTH 16 0
BBX 16 16 0 -2
BITMAP
1040
104f
11e9
7d2a
552a
55ec
552a
552a
7de9
154d
1d6a
65a8
0108
0008
0000
0000
ENDCHAR
STARTCHAR ch-387
ENCODING 387
SWIDTH 1000 0
DWIDTH 16 0
BBX 16 16 0 -2
BITMAP
0810
09ff
0844
3e28
2bff
2b21
2a10
2bff
3e40
287c
0e44
7284
2114
0208
0000
0000
ENDCHAR
STARTCHAR ch-388
ENCODING 388
SWIDTH 1000 0
DWIDTH 16 0
BBX 16 16 0 -2
BITMAP
1040
109f
11e4
7f3f
5535
55f5
5515
7d15
55f5
1135
1524
1de4
7104
0104
0000
0000
ENDCHAR
STARTCHAR ch-389
ENCODING 389
SWIDTH 1000 0
DWIDTH 16 0
BBX 16 16 0 -2
BITMAP
1020
10fc
1084
7cfc
5484
54fc
5484
7cfc
1000
1020
1452
7d51
0545
023c
0000
0000
ENDCHAR
STARTCHAR ch-391
ENCODING 391
SWIDTH 1000 0
DWIDTH 16 0
BBX 16 16 0 -2
BITMAP
1001
11fe
1010
7d11
54b2
5440
5484
54f8
7c11
11ff
1010
15ff
7c44
0482
0000
0000
ENDCHAR
STARTCHAR ch-392
ENCODING 392
SWIDTH 1000 0
DWIDTH 16 0
BBX 16 16 0 -2
BITMAP
08ff
0888
3ebe
2aa2
2aa2
2abe
2aa2
3ea2
08be
0a88
0eaa
7329
0149
0218
0000
0000
ENDCHAR
STARTCHAR ch-393
ENCODING 393
SWIDTH 1000 0
DWIDTH 16 0
BBX 16 16 0 -2
BITMAP
1044
1082
1121
7c44
54fe
5400
55ef
7c21
55ef
1021
15ef
1c21
7021
00c6
0000
0000
ENDCHAR
STARTCHAR ch-397
ENCODING 397
SWIDTH 1000 0
DWIDTH 16 0
BBX 16 16 0 -2
BITMAP
0108
7f88
0008
3f08
213e
3f2a
002a
7faa
51be
4aaa
7f88
448a
44ff
4181
0000
0000
ENDCHAR
STARTCHAR ch-399
ENCODING 399
SWIDTH 1000 0
DWIDTH 16 0
BBX 16 16 0 -2
BITMAP
1008
10ff
10a0
7ca0
54ff
5688
5588
7cff
1188
1288
1088
1494
1d22
7041
0000
0000
ENDCHAR
STARTCHAR ch-400
ENCODING 400
SWIDTH 1000 0
DWIDTH 16 0
BBX 16 16 0 -2
BITMAP
1040
10fe
1182
7c82
54fe
5480
54fe
5480
7cff
1001
1155
1555
7c01
0403
0000
0000
ENDCHAR
STARTCHAR ch-401
ENCODING 401
SWIDTH 1000 0
DWIDTH 16 0
BBX 16 16 0 -2
BITMAP
0040
10fe
1182
7cfe
5482
54fe
5482
7cfe
1011
11ff
1010
1428
7c44
0583
0000
0000
ENDCHAR
STARTCHAR ch-402
ENCODING 402
SWIDTH 1000 0
DWIDTH 16 0
BBX 16 16 0 -2
BITMAP
1000
1010
7c28
1044
7c92
4511
7cfe
4492
7c92
10fe
7c10
1011
11ff
1001
0000
0000
ENDCHAR
STARTCHAR ch-403
ENCODING 403
SWIDTH 1000 0
DWIDTH 16 0
BBX 16 16 0 -2
BITMAP
1010
11ff
1010
7cfe
5410
55ff
5484
7d7a
1211
10fe
1010
1454
7c92
0410
0000
0000
ENDCHAR
STARTCHAR ch-404
ENCODING 404
SWIDTH 1000 0
DWIDTH 16 0
BBX 16 16 0 -2
BITMAP
13fe
1110
7d1e
5510
557f
5549
557e
7d48
114e
1140
1154
1655
7c95
0467
0000
0000
ENDCHAR
STARTCHAR ch-406
ENCODING 406
SWIDTH 1000 0
DWIDTH 16 0
BBX 16 16 0 -2
BITMAP
107c
1044
105c
7c54
55ff
5501
547c
7c44
107c
1044
107c
1444
7c44
048c
0000
0000
ENDCHAR
STARTCHAR ch-407
ENCODING 407
SWIDTH 1000 0
DWIDTH 16 0
BBX 16 16 0 -2
BITMAP
1008
10ff
1088
7cbe
548a
54ff
548a
54be
7c88
10be
14a2
7d22
053e
0222
0000
0000
ENDCHAR
STARTCHAR ch-408
ENCODING 408
SWIDTH 1000 0
DWIDTH 16 0
BBX 16 16 0 -2
BITMAP
1111
1111
7dff
5400
55ff
5400
54fe
7c82
1082
10fe
1000
1482
7c44
05ff
0000
0000
ENDCHAR
STARTCHAR ch-410
ENCODING 410
SWIDTH 1000 0
DWIDTH 16 0
BBX 16 16 0 -2
BITMAP
2140
7f7c
0142
3e7e
2200
3e40
227d
3e41
46ff
1ffc
1084
1ffc
0081
7fff
0000
0000
ENDCHAR
STARTCHAR ch-411
ENCODING 411
SWIDTH 1000 0
DWIDTH 16 0
BBX 16 16 0 -2
BITMAP
1010
11ff
1111
7c7c
5410
547c
5410
55ff
7c00
10fe
1082
1482
7cfe
0482
0000
0000
ENDCHAR
STARTCHAR ch-412
ENCODING 412
SWIDTH 1000 0
DWIDTH 16 0
BBX 16 16 0 -2
BITMAP
083c
7f25
0847
3e3c
0024
7f18
4124
3ec3
0080
1ffc
1084
1ffc
0081
7fff
0000
0000
ENDCHAR
STARTCHAR ch-413
ENCODING 413
SWIDTH 1000 0
DWIDTH 16 0
BBX 16 16 0 -2
BITMAP
1040
1040
10fe
7d92
5492
54fe
5492
7c92
10fe
1048
104a
144f
7c89
050f
0000
0000
ENDCHAR
STARTCHAR ch-414
ENCODING 414
SWIDTH 1000 0
DWIDTH 16 0
BBX 16 16 0 -2
BITMAP
01fe
1110
1110
7dfe
5510
55fe
5510
7dff
1001
1155
1555
7d55
0402
000c
0000
0000
ENDCHAR
STARTCHAR ch-415
ENCODING 415
SWIDTH 1000 0
DWIDTH 16 0
BBX 16 16 0 -2
BITMAP
09ff
0901
3efe
2a82
2afe
2a82
3efe
2a20
0812
0bff
0e00
7244
2083
0101
0000
0000
ENDCHAR
STARTCHAR ch-418
ENCODING 418
SWIDTH 1000 0
DWIDTH 16 0
BBX 16 16 0 -2
BITMAP
4949
2b2a
1c1c
1616
2222
3fff
6003
408a
0ffc
0888
0ff8
0084
00be
1fc3
0000
0000
ENDCHAR
STARTCHAR ch-419
ENCODING 419
SWIDTH 1000 0
DWIDTH 16 0
BBX 16 16 0 -2
BITMAP
3c92
2454
24fe
2410
3dff
2482
2511
2410
3cfe
2492
24fe
2411
25ff
4c01
0000
0000
ENDCHAR
STARTCHAR ch-420
ENCODING 420
SWIDTH 1000 0
DWIDTH 16 0
BBX 16 16 0 -2
BITMAP
1090
1117
7f11
4511
29ff
1111
2911
45ff
1010
7c10
5410
7c28
1244
7e82
0000
0000
ENDCHAR
STARTCHAR ch-426
ENCODING 426
SWIDTH 1000 0
DWIDTH 16 0
BBX 16 16 0 -2
BITMAP
1010
11ff
1044
7c28
55ff
5529
5529
7dc7
1101
117d
1545
157d
7d01
0103
0000
0000
ENDCHAR
STARTCHAR ch-427
ENCODING 427
SWIDTH 1000 0
DWIDTH 16 0
BBX 16 16 0 -2
BITMAP
0410
3f90
043f
7fc2
0a12
2a92
4a8c
1233
1ffc
1084
1ffc
0082
3ffe
0002
0000
0000
ENDCHAR
STARTCHAR ch-428
ENCODING 428
SWIDTH 1000 0
DWIDTH 16 0
BBX 16 16 0 -2
BITMAP
1048
13ff
1048
7dfe
554a
55fe
554a
55fe
7c00
50fc
1484
1efc
6284
00fc
0000
0000
ENDCHAR
STARTCHAR ch-429
ENCODING 429
SWIDTH 1000 0
DWIDTH 16 0
BBX 16 16 0 -2
BITMAP
1010
11ff
7caa
5492
54aa
5482
54fe
7c10
11ff
1111
1125
157d
7d05
0503
0000
0000
ENDCHAR
STARTCHAR ch-430
ENCODING 430
SWIDTH 1000 0
DWIDTH 16 0
BBX 16 16 0 -2
BITMAP
10aa
11ff
10aa
7caa
573b
5400
55ff
5511
7cfe
1092
1092
1496
7c10
0410
0000
0000
ENDCHAR
STARTCHAR ch-431
ENCODING 431
SWIDTH 1000 0
DWIDTH 16 0
BBX 16 16 0 -2
BITMAP
0410
3f90
1f3f
0464
7f94
0808
0e14
12a3
2680
0ff8
0888
0ff8
0082
7ffe
0000
0000
ENDCHAR
STARTCHAR ch-432
ENCODING 432
SWIDTH 1000 0
DWIDTH 16 0
BBX 16 16 0 -2
BITMAP
1010
11ff
1128
7dff
5529
5529
55ff
5500
7d44
1155
1166
1544
7e55
0477
0000
0000
ENDCHAR
STARTCHAR ch-434
ENCODING 434
SWIDTH 1000 0
DWIDTH 16 0
BBX 16 16 0 -2
BITMAP
0010
11ff
1129
7d45
5482
5400
54fe
5420
7c44
10fe
1410
14fe
7c10
01ff
0000
0000
ENDCHAR
STARTCHAR ch-435
ENCODING 435
SWIDTH 1000 0
DWIDTH 16 0
BBX 16 16 0 -2
BITMAP
0892
0854
0810
3eff
2a81
2b7c
2a44
3e7c
2810
0810
0afe
0e10
7210
21ff
0000
0000
ENDCHAR
STARTCHAR ch-436
ENCODING 436
SWIDTH 1000 0
DWIDTH 16 0
BBX 16 16 0 -2
BITMAP
7e10
22fe
2c10
22fe
2292
22fe
3492
28fe
2054
2092
1ffc
1084
1ffd
7fff
0000
0000
ENDCHAR
STARTCHAR ch-437
ENCODING 437
SWIDTH 1000 0
DWIDTH 16 0
BBX 16 16 0 -2
BITMAP
09ff
0828
3efe
2aaa
2aaa
2afe
2a00
3efe
2800
0bff
0e54
7293
2111
0030
0000
0000
ENDCHAR
STARTCHAR ch-438
ENCODING 438
SWIDTH 1000 0
DWIDTH 16 0
BBX 16 16 0 -2
BITMAP
1ffc
1000
1ff8
1008
1ff8
1000
1ffc
0000
0808
3e3e
2a2a
3e3e
0909
7f7f
0000
0000
ENDCHAR
STARTCHAR ch-439
ENCODING 439
SWIDTH 1000 0
DWIDTH 16 0
BBX 16 16 0 -2
BITMAP
0080
3fff
2200
27fc
2c44
27f4
27fc
2240
2ffc
2040
27fc
2444
47fd
0fff
0000
0000
ENDCHAR
STARTCHAR ch-440
ENCODING 440
SWIDTH 1000 0
DWIDTH 16 0
BBX 16 16 0 -2
BITMAP
1210
211f
1221
2105
5e84
1204
120a
1e31
0080
1ffc
1084
1ffc
0082
3ffe
0000
0000
ENDCHAR
STARTCHAR ch-441
ENCODING 441
SWIDTH 1000 0
DWIDTH 16 0
BBX 16 16 0 -2
BITMAP
1040
11f1
1046
7c44
55f4
5557
55f5
7d55
11f5
1045
11f5
1449
7c51
0441
0000
0000
ENDCHAR
STARTCHAR ch-442
ENCODING 442
SWIDTH 1000 0
DWIDTH 16 0
BBX 16 16 0 -2
BITMAP
08ff
0892
0afe
3f92
2afe
2a10
2a24
2af8
3e12
28fe
0e54
7293
2111
0010
0000
0000
ENDCHAR
STARTCHAR ch-443
ENCODING 443
SWIDTH 1000 0
DWIDTH 16 0
BBX 16 16 0 -2
BITMAP
1010
10fe
1092
7dff
5492
54fe
55ff
5511
7dff
1044
11ff
1428
7c10
01ef
0000
0000
ENDCHAR
STARTCHAR ch-444
ENCODING 444
SWIDTH 1000 0
DWIDTH 16 0
BBX 16 16 0 -2
BITMAP
1044
11ff
1044
107c
7c10
54fe
5492
54fe
7c10
10fe
1410
15ff
7c10
05ff
0000
0000
ENDCHAR
STARTCHAR ch-445
ENCODING 445
SWIDTH 1000 0
DWIDTH 16 0
BBX 16 16 0 -2
BITMAP
0800
0ff0
0a20
11c0
0220
0c98
7147
0888
3e3e
2a2a
3e3e
0a0a
7f7f
0101
0000
0000
ENDCHAR
STARTCHAR ch-446
ENCODING 446
SWIDTH 1000 0
DWIDTH 16 0
BBX 16 16 0 -2
BITMAP
1010
11ff
1101
7d7d
5410
54fe
5492
7c92
10fe
1092
1492
7cfe
0444
0082
0000
0000
ENDCHAR
STARTCHAR ch-447
ENCODING 447
SWIDTH 1000 0
DWIDTH 16 0
BBX 16 16 0 -2
BITMAP
223e
2244
3ea8
0214
7eff
1244
1224
628c
0080
1ffc
1084
1ffc
0082
3ffe
0000
0000
ENDCHAR
STARTCHAR ch-448
ENCODING 448
SWIDTH 1000 0
DWIDTH 16 0
BBX 16 16 0 -2
BITMAP
0820
09ff
0810
3e24
2b79
2a92
2b29
2a7c
3e14
29ff
0a10
0e10
7210
2010
0000
0000
ENDCHAR
STARTCHAR ch-450
ENCODING 450
SWIDTH 1000 0
DWIDTH 16 0
BBX 16 16 0 -2
BITMAP
1020
107c
10c4
7c7c
5444
547c
547f
5440
7c7f
1021
15fd
1471
7ca9
0526
0000
0000
ENDCHAR
STARTCHAR ch-451
ENCODING 451
SWIDTH 1000 0
DWIDTH 16 0
BBX 16 16 0 -2
BITMAP
107c
1044
7c7c
547c
5400
55ff
5529
7dff
1000
107e
1004
1424
7c18
04e7
0000
0000
ENDCHAR
STARTCHAR ch-452
ENCODING 452
SWIDTH 1000 0
DWIDTH 16 0
BBX 16 16 0 -2
BITMAP
0810
3e7c
0814
7f54
2235
7f1d
0825
7f47
0880
1ffc
1084
1ffc
0081
7fff
0000
0000
ENDCHAR
STARTCHAR ch-453
ENCODING 453
SWIDTH 1000 0
DWIDTH 16 0
BBX 16 16 0 -2
BITMAP
1010
11ff
1100
7d24
5524
55ff
5524
5524
7d24
113c
1200
14aa
7caa
0529
0000
0000
ENDCHAR
STARTCHAR ch-454
ENCODING 454
SWIDTH 1000 0
DWIDTH 16 0
BBX 16 16 0 -2
BITMAP
0844
09ff
0844
3e00
2afe
2a82
2afe
2a82
3efe
2810
0bff
0e10
7228
20c7
0000
0000
ENDCHAR
STARTCHAR ch-456
ENCODING 456
SWIDTH 1000 0
DWIDTH 16 0
BBX 16 16 0 -2
BITMAP
11ff
110b
1109
7dff
5509
55e9
55a9
7de9
110b
15f5
150b
7d01
01ff
0101
0000
0000
ENDCHAR
STARTCHAR ch-457
ENCODING 457
SWIDTH 1000 0
DWIDTH 16 0
BBX 16 16 0 -2
BITMAP
11ef
10a5
1129
7ca5
5529
5452
5428
5444
7c92
1165
1008
14f2
7c04
04f8
0000
0000
ENDCHAR
STARTCHAR ch-458
ENCODING 458
SWIDTH 1000 0
DWIDTH 16 0
BBX 16 16 0 -2
BITMAP
0ff8
0110
00a0
7fff
0141
0642
1840
0888
3e3e
2a2a
3e3e
0909
7f7f
0101
0000
0000
ENDCHAR
STARTCHAR ch-459
ENCODING 459
SWIDTH 1000 0
DWIDTH 16 0
BBX 16 16 0 -2
BITMAP
08f8
0812
0892
3e54
2bff
2a34
2a54
2a93
3f12
0a50
0ed2
7145
2245
003c
0000
0000
ENDCHAR
STARTCHAR ch-460
ENCODING 460
SWIDTH 1000 0
DWIDTH 16 0
BBX 16 16 0 -2
BITMAP
1040
10fe
118a
7cd6
54aa
54d2
54ae
7cfe
1000
1152
1549
1540
7d42
043e
0000
0000
ENDCHAR
STARTCHAR ch-465
ENCODING 465
SWIDTH 1000 0
DWIDTH 16 0
BBX 16 16 0 -2
BITMAP
0810
08fe
0828
3fff
2a00
2afe
2a82
2afe
3e82
28fe
0a10
0fff
7210
2010
0000
0000
ENDCHAR
STARTCHAR ch-466
ENCODING 466
SWIDTH 1000 0
DWIDTH 16 0
BBX 16 16 0 -2
BITMAP
1088
13ff
108c
7c22
57ff
5450
5488
5507
7e8a
5088
17ff
1c88
6488
0108
0000
0000
ENDCHAR
STARTCHAR ch-467
ENCODING 467
SWIDTH 1000 0
DWIDTH 16 0
BBX 16 16 0 -2
BITMAP
087c
0888
09fe
3e92
2a92
2afe
2a62
3e94
2938
0a58
0eb4
7257
2092
0030
0000
0000
ENDCHAR
STARTCHAR ch-468
ENCODING 468
SWIDTH 1000 0
DWIDTH 16 0
BBX 16 16 0 -2
BITMAP
10fe
1092
10d6
7cba
5492
54fe
5410
54fe
7c10
11ff
1400
7caa
04aa
0129
0000
0000
ENDCHAR
STARTCHAR ch-471
ENCODING 471
SWIDTH 1000 0
DWIDTH 16 0
BBX 16 16 0 -2
BITMAP
0080
1ffc
0ff8
0888
0ff8
7fff
4081
5ffd
1ffc
3ffe
2082
3ffe
0081
7fff
0000
0000
ENDCHAR
STARTCHAR ch-472
ENCODING 472
SWIDTH 1000 0
DWIDTH 16 0
BBX 16 16 0 -2
BITMAP
1028
104a
10df
1148
7c45
5442
54fe
5482
54fe
7c82
10fe
1482
7cfe
0501
0000
0000
ENDCHAR
STARTCHAR ch-473
ENCODING 473
SWIDTH 1000 0
DWIDTH 16 0
BBX 16 16 0 -2
BITMAP
1084
1046
13f5
7d24
54cf
57f4
5404
7de4
1125
1126
15e4
152d
7d33
01e1
0000
0000
ENDCHAR
STARTCHAR ch-475
ENCODING 475
SWIDTH 1000 0
DWIDTH 16 0
BBX 16 16 0 -2
BITMAP
1041
13fa
1042
7df4
5409
55f1
5512
5514
7df8
5001
1511
1ca2
67f4
0008
0000
0000
ENDCHAR
STARTCHAR ch-476
ENCODING 476
SWIDTH 1000 0
DWIDTH 16 0
BBX 16 16 0 -2
BITMAP
1002
10fc
1010
11ff
7c28
547c
54c6
557d
55ff
7d01
117d
1545
7d7d
0507
0000
0000
ENDCHAR
STARTCHAR ch-477
ENCODING 477
SWIDTH 1000 0
DWIDTH 16 0
BBX 16 16 0 -2
BITMAP
111f
1090
111f
7c91
541f
5450
549f
5510
7dff
1054
1492
7d11
0410
0010
0000
0000
ENDCHAR
STARTCHAR ch-478
ENCODING 478
SWIDTH 1000 0
DWIDTH 16 0
BBX 16 16 0 -2
BITMAP
1510
249f
4462
3f92
2492
2e8c
358c
24b3
0080
1ffc
1084
1ffc
0082
3ffe
0000
0000
ENDCHAR
STARTCHAR ch-479
ENCODING 479
SWIDTH 1000 0
DWIDTH 16 0
BBX 16 16 0 -2
BITMAP
1010
11ff
1010
1129
7cc6
5482
55ff
5482
54fe
7c82
10fe
1492
7d11
0430
0000
0000
ENDCHAR
STARTCHAR ch-480
ENCODING 480
SWIDTH 1000 0
DWIDTH 16 0
BBX 16 16 0 -2
BITMAP
08f8
0810
0892
3e54
2bff
2a54
2a93
3ffe
2892
0a92
0efe
7292
2092
00fe
0000
0000
ENDCHAR
STARTCHAR ch-481
ENCODING 481
SWIDTH 1000 0
DWIDTH 16 0
BBX 16 16 0 -2
BITMAP
1084
1044
7c28
55fc
5424
5448
55fe
7c82
11ff
1601
1155
1555
7c01
0406
0000
0000
ENDCHAR
STARTCHAR ch-482
ENCODING 482
SWIDTH 1000 0
DWIDTH 16 0
BBX 16 16 0 -2
BITMAP
1010
11ff
1010
10fe
7c00
54fe
5482
54fe
5428
7dff
1028
14fe
7c82
04fe
0000
0000
ENDCHAR
STARTCHAR ch-483
ENCODING 483
SWIDTH 1000 0
DWIDTH 16 0
BBX 16 16 0 -2
BITMAP
1020
1124
1268
13be
7d24
56aa
57fe
5422
57ff
7d22
1114
1688
7c55
0423
0000
0000
ENDCHAR
STARTCHAR ch-484
ENCODING 484
SWIDTH 1000 0
DWIDTH 16 0
BBX 16 16 0 -2
BITMAP
11ef
1129
11ef
7d08
5529
55ef
5444
55ff
7c44
1044
15ff
7c44
0482
0101
0000
0000
ENDCHAR
STARTCHAR ch-485
ENCODING 485
SWIDTH 1000 0
DWIDTH 16 0
BBX 16 16 0 -2
BITMAP
0844
09ff
3e44
2a7c
2a00
2bff
2a00
3efe
2892
0afe
0e92
72fe
2044
0183
0000
0000
ENDCHAR
STARTCHAR ch-486
ENCODING 486
SWIDTH 1000 0
DWIDTH 16 0
BBX 16 16 0 -2
BITMAP
1010
11ff
1054
11ff
7c44
54fe
5482
54fe
5482
7cfe
1082
14fe
7c82
0501
0000
0000
ENDCHAR
STARTCHAR ch-487
ENCODING 487
SWIDTH 1000 0
DWIDTH 16 0
BBX 16 16 0 -2
BITMAP
1044
1155
10ee
7caa
5511
5400
55ff
5501
7c10
107e
1412
1412
7c22
00cc
0000
0000
ENDCHAR
STARTCHAR ch-488
ENCODING 488
SWIDTH 1000 0
DWIDTH 16 0
BBX 16 16 0 -2
BITMAP
3fff
2890
2510
3fdf
2229
2a88
2f94
2262
2441
4ffc
0444
07fc
0042
0ffe
0000
0000
ENDCHAR
STARTCHAR ch-490
ENCODING 490
SWIDTH 1000 0
DWIDTH 16 0
BBX 16 16 0 -2
BITMAP
0810
09ff
0810
3efe
2a92
2afe
2a92
2afe
3e11
29ff
0e50
7352
2145
003c
0000
0000
ENDCHAR
STARTCHAR ch-491
ENCODING 491
SWIDTH 1000 0
DWIDTH 16 0
BBX 16 16 0 -2
BITMAP
11ff
1044
11ff
1145
7dff
5400
54fe
5482
54fe
7c82
10fe
1410
7dff
0410
0000
0000
ENDCHAR
STARTCHAR ch-492
ENCODING 492
SWIDTH 1000 0
DWIDTH 16 0
BBX 16 16 0 -2
BITMAP
11ef
1129
7def
5400
54fe
5492
54fe
7c92
54fe
1010
11ff
1410
7c10
0010
0000
0000
ENDCHAR
STARTCHAR ch-493
ENCODING 493
SWIDTH 1000 0
DWIDTH 16 0
BBX 16 16 0 -2
BITMAP
1020
1048
10fe
7d88
5488
54fe
5488
54fe
5488
7c88
10fe
1400
7d29
0529
0000
0000
ENDCHAR
STARTCHAR ch-495
ENCODING 495
SWIDTH 1000 0
DWIDTH 16 0
BBX 16 16 0 -2
BITMAP
1010
10fe
1010
11ff
7c44
55ef
5444
55ef
5400
7dff
1028
1448
7c89
050f
0000
0000
ENDCHAR
STARTCHAR ch-498
ENCODING 498
SWIDTH 1000 0
DWIDTH 16 0
BBX 16 16 0 -2
BITMAP
0080
0ff8
0888
0888
0ff8
0084
1ffc
0808
7f7f
4949
4949
7f7f
0909
7f7f
0000
0000
ENDCHAR
STARTCHAR ch-499
ENCODING 499
SWIDTH 1000 0
DWIDTH 16 0
BBX 16 16 0 -2
BITMAP
13fe
1002
11fe
1002
7ffe
5400
57df
5511
57df
7c04
13ff
1484
7c44
041c
0000
0000
ENDCHAR
STARTCHAR ch-500
ENCODING 500
SWIDTH 1000 0
DWIDTH 16 0
BBX 16 16 0 -2
BITMAP
2202
7f7c
2240
3e40
227e
3e48
2248
7f88
4188
1ffc
1084
1ffc
0081
7fff
0000
0000
ENDCHAR
STARTCHAR ch-502
ENCODING 502
SWIDTH 1000 0
DWIDTH 16 0
BBX 16 16 0 -2
BITMAP
11f0
10af
10e9
7ca9
54e9
54af
55f0
7c20
1004
1078
1410
14fe
7c10
01ff
0000
0000
ENDCHAR
STARTCHAR ch-503
ENCODING 503
SWIDTH 1000 0
DWIDTH 16 0
BBX 16 16 0 -2
BITMAP
1092
1054
11ff
7d01
557d
5444
547c
7c00
10fe
1492
14fe
7c92
00fe
0082
0000
0000
ENDCHAR
STARTCHAR ch-505
ENCODING 505
SWIDTH 1000 0
DWIDTH 16 0
BBX 16 16 0 -2
BITMAP
1000
1f7e
5f26
1568
1f3e
1548
1fff
1508
2088
4ffc
0ff8
0084
3ffe
1002
0000
0000
ENDCHAR
STARTCHAR ch-506
ENCODING 506
SWIDTH 1000 0
DWIDTH 16 0
BBX 16 16 0 -2
BITMAP
1010
11ff
10fe
7cba
54aa
54ba
54fe
7c7c
1044
107c
1444
147c
7c00
01ff
0000
0000
ENDCHAR
STARTCHAR ch-507
ENCODING 507
SWIDTH 1000 0
DWIDTH 16 0
BBX 16 16 0 -2
BITMAP
1048
11ff
1010
10fe
7c10
55ff
55ca
5488
7dff
10a8
15ca
1485
7c8b
0591
0000
0000
ENDCHAR
STARTCHAR ch-508
ENCODING 508
SWIDTH 1000 0
DWIDTH 16 0
BBX 16 16 0 -2
BITMAP
1220
7fa0
123f
1f22
2122
1d54
1508
1d14
06a2
0ff8
0888
0ffa
0082
3ffe
0000
0000
ENDCHAR
STARTCHAR ch-510
ENCODING 510
SWIDTH 1000 0
DWIDTH 16 0
BBX 16 16 0 -2
BITMAP
087c
0888
09ff
3ea2
2ac9
2aff
2abe
3e80
28be
0a80
0ebe
7322
213e
0222
0000
0000
ENDCHAR
STARTCHAR ch-511
ENCODING 511
SWIDTH 1000 0
DWIDTH 16 0
BBX 16 16 0 -2
BITMAP
083c
7f25
0847
3e7e
3e24
2a18
7f24
4942
7f81
0080
1ffc
1084
1ffd
7fff
0000
0000
ENDCHAR
ENDFONT
